<?xml version="1.0" encoding="utf-8"?>
<svg width="60px" height="60px" viewBox="0 0 60 60" version="1.1" xmlns:xlink="http://www.w3.org/1999/xlink" xmlns="http://www.w3.org/2000/svg">
  <defs>
    <path d="M705 -10999L705 -10999L705 -10939L645 -10939L645 -10999L705 -10999Z" id="path_1" />
    <clipPath id="clip_1">
      <use xlink:href="#path_1" clip-rule="evenodd" fill-rule="evenodd" />
    </clipPath>
  </defs>
  <g id="Connect Copy" clip-path="url(#clip_1)">
    <path d="M705 -10999L705 -10999L705 -10939L645 -10939L645 -10999L705 -10999Z" id="Connect-Copy" fill="none" stroke="none" />
    <path d="M51.5625 4.0625C54.6661 4.65026 55.6036 6.31694 54.375 9.0625C51.5625 11.875 48.75 14.6875 45.9375 17.5C51.1042 23.0214 50.8959 28.3339 45.3125 33.4375C46.391 34.5174 47.2243 35.7674 47.8125 37.1875C47.3958 38.8542 46.3542 39.8958 44.6875 40.3125C36.1738 32.7372 27.9447 24.8205 20 16.5625C18.8108 14.3386 19.4358 12.6719 21.875 11.5625C23.4643 12.0044 24.8185 12.8377 25.9375 14.0625C31.0412 8.47913 36.3537 8.27081 41.875 13.4375C45.0388 10.1684 48.2679 7.04338 51.5625 4.0625L51.5625 4.0625Z" id="Group" fill="#000000" fill-opacity="0.921" fill-rule="evenodd" stroke="none" />
    <path d="M14.0625 19.0625C14.8537 19.4312 15.687 19.7437 16.5625 20C24.8205 27.9446 32.7372 36.1738 40.3125 44.6875C39.8958 46.3542 38.8542 47.3958 37.1875 47.8125C35.7674 47.2243 34.5174 46.3909 33.4375 45.3125C28.3339 50.8959 23.0213 51.1042 17.5 45.9375C14.343 49.4088 10.9055 52.5338 7.18747 55.3125C4.53034 54.3814 3.80117 52.7147 4.99997 50.3125C7.81247 47.5 10.625 44.6875 13.4375 41.875C8.27079 36.3536 8.4791 31.0411 14.0625 25.9375C11.1448 23.3811 11.1448 21.0894 14.0625 19.0625L14.0625 19.0625Z" id="Group" fill="#000000" fill-opacity="0.921" fill-rule="evenodd" stroke="none" />
  </g>
</svg>