<?xml version="1.0" encoding="utf-8"?>
<svg width="60px" height="60px" viewBox="0 0 60 60" version="1.1" xmlns:xlink="http://www.w3.org/1999/xlink" xmlns="http://www.w3.org/2000/svg">
  <defs>
    <path d="M705 -10999L705 -10999L705 -10939L645 -10939L645 -10999L705 -10999Z" id="path_1" />
    <clipPath id="clip_1">
      <use xlink:href="#path_1" clip-rule="evenodd" fill-rule="evenodd" />
    </clipPath>
  </defs>
  <g id="Disconnect Copy" clip-path="url(#clip_1)">
    <path d="M705 -10999L705 -10999L705 -10939L645 -10939L645 -10999L705 -10999Z" id="Disconnect-Copy" fill="none" stroke="none" />
    <path d="M51.5625 4.0625C53.3589 4.27819 54.6089 5.21569 55.3125 6.875C54.3496 9.09356 52.8913 10.9686 50.9375 12.5C54.7055 15.8898 55.643 19.9523 53.75 24.6875C51.6567 26.6763 49.6775 28.7596 47.8125 30.9375C48.8909 32.0174 49.7243 33.2674 50.3125 34.6875C49.8958 36.3542 48.8542 37.3958 47.1875 37.8125C44.9238 36.3833 42.8405 34.7166 40.9375 32.8125C39.0345 34.7166 36.9512 36.3833 34.6875 37.8125C33.0208 37.3958 31.9792 36.3542 31.5625 34.6875C32.9917 32.4238 34.6584 30.3405 36.5625 28.4375C34.8958 26.3542 33.0208 24.4792 30.9375 22.8125C29.0345 24.7166 26.9512 26.3833 24.6875 27.8125C23.0208 27.3958 21.9792 26.3542 21.5625 24.6875C22.9917 22.4238 24.6584 20.3405 26.5625 18.4375C24.5184 16.5028 22.8518 14.3152 21.5625 11.875C23.491 8.58244 25.7827 8.47831 28.4375 11.5625C30.8449 9.25856 33.3449 7.07106 35.9375 5C40.3428 3.82125 43.9886 4.96708 46.875 8.4375C48.3724 6.83337 49.9349 5.37503 51.5625 4.0625L51.5625 4.0625Z" id="Group" fill="#000000" fill-opacity="0.924" fill-rule="evenodd" stroke="none" />
    <path d="M11.5625 21.5625C12.3538 21.9312 13.1871 22.2437 14.0625 22.5C22.3205 30.4446 30.2372 38.6738 37.8125 47.1875C37.3958 48.8542 36.3542 49.8958 34.6875 50.3125C33.2674 49.7243 32.0174 48.8909 30.9375 47.8125C28.5301 50.1164 26.0301 52.3039 23.4375 54.375C19.0322 55.5537 15.3864 54.4079 12.5 50.9375C11.002 52.75 9.23112 54.2083 7.1875 55.3125C5.52083 54.8958 4.47917 53.8542 4.0625 52.1875C5.16669 50.1439 6.625 48.373 8.4375 46.875C4.96708 43.9886 3.82125 40.3428 5 35.9375C7.07106 33.3449 9.25856 30.8449 11.5625 28.4375C8.64488 25.8811 8.64488 23.5894 11.5625 21.5625L11.5625 21.5625Z" id="Group" fill="#000000" fill-opacity="0.932" fill-rule="evenodd" stroke="none" />
  </g>
</svg>