<?xml version="1.0" encoding="utf-8"?>
<svg width="60px" height="60px" viewBox="0 0 60 60" version="1.1" xmlns:xlink="http://www.w3.org/1999/xlink" xmlns="http://www.w3.org/2000/svg">
  <defs>
    <path d="M2375 -10977L2375 -10977L2375 -10917L2315 -10917L2315 -10977L2375 -10977Z" id="path_1" />
    <clipPath id="clip_1">
      <use xlink:href="#path_1" clip-rule="evenodd" fill-rule="evenodd" />
    </clipPath>
  </defs>
  <g id="msg_error" clip-path="url(#clip_1)">
    <path d="M2375 -10977L2375 -10977L2375 -10917L2315 -10917L2315 -10977L2375 -10977Z" id="msg_error" fill="none" stroke="none" />
    <path d="M53.6 22.4L53.55 22.4C52.7167 21.6 51.8667 20.8667 51 20.2L51 0L0 0L0 32L16.8 32C16.2667 33.9 16 35.9 16 38C16 44.1 18.15 49.3 22.45 53.6L22.45 53.55C26.6833 57.85 31.8667 60 38 60C44.0333 60 49.2167 57.8667 53.55 53.6L53.6 53.6C57.8667 49.3 60 44.1 60 38C60 31.9333 57.8667 26.7333 53.6 22.4M47 5.4L47 17.85C44.2333 16.6167 41.2333 16 38 16C36.5333 16 35.1167 16.1333 33.75 16.4L33.2 15.95L47 5.4M50.75 25.25C50.85 25.35 50.9333 25.4333 51 25.5C54.3333 29 56 33.1667 56 38C56 42.9667 54.25 47.2167 50.75 50.75C47.2167 54.25 42.9667 56 38 56C33 56 28.7667 54.25 25.3 50.75C21.7667 47.2167 20 42.9667 20 38C20 35.8667 20.3333 33.8667 21 32C21.4667 30.6 22.1333 29.2667 23 28C23.6333 27.0333 24.4 26.1 25.3 25.2L25.3 25.25C28.1333 22.3833 31.4667 20.7 35.3 20.2C36.1667 20.0667 37.0667 20 38 20C38.1333 20 38.2667 20 38.4 20C41.5333 20.0667 44.4 20.85 47 22.35C48.3333 23.1167 49.5833 24.0667 50.75 25.2L50.75 25.25M24.15 20.85C23.55 21.3167 22.9833 21.8333 22.45 22.4C20.75 24.1333 19.3833 26 18.35 28L5.65 28L19.5 17.25L24.15 20.85M4 5.4L17.85 15.95L4 26.75L4 5.4M25.5 19.35L5.5 4L45.55 4L25.5 19.35L25.5 19.35Z" id="Group" fill="#000000" fill-rule="evenodd" stroke="none" />
    <path d="M42.2564 37.6118L48.9487 30.9195L44.8855 26.8563L38.1932 33.5487L31.4053 26.7607L27.3421 30.8239L34.1778 37.6596L27.2943 44.4954L31.4053 48.5107L38.1932 41.675L44.9333 48.4151L48.9965 44.3519L42.2564 37.6118L42.2564 37.6118Z" id="Shape" fill="#CC0000" fill-rule="evenodd" stroke="none" />
  </g>
</svg>