<?xml version="1.0" encoding="utf-8"?>
<svg width="128px" height="128px" viewBox="0 0 128 128" version="1.1" xmlns:xlink="http://www.w3.org/1999/xlink" xmlns="http://www.w3.org/2000/svg">
  <defs>
    <path d="M2570 -10996L2570 -10996L2570 -10868L2442 -10868L2442 -10996L2570 -10996Z" id="path_1" />
    <clipPath id="clip_1">
      <use xlink:href="#path_1" clip-rule="evenodd" fill-rule="evenodd" />
    </clipPath>
  </defs>
  <g id="БМ РСЗО" clip-path="url(#clip_1)">
    <path d="M2570 -10996L2570 -10996L2570 -10868L2442 -10868L2442 -10996L2570 -10996Z" id="БМ-РСЗО" fill="none" stroke="none" />
    <path d="M76.15 53.2756L76.125 51.6006L67 51.6006L67.025 53.2756L76.15 53.2756M27.15 72.0258C27.1167 72.0258 27.1 72.0424 27.1 72.0758C25.5333 73.6758 24.75 75.6091 24.75 77.8758C24.75 80.1758 25.5333 82.1258 27.1 83.7258C27.1 83.7424 27.1167 83.7508 27.15 83.7508C28.7333 85.3341 30.6667 86.1258 32.95 86.1258C35.25 86.1258 37.1917 85.3341 38.775 83.7508C38.7917 83.7508 38.8 83.7424 38.8 83.7258C40.3833 82.1258 41.175 80.1758 41.175 77.8758C41.175 75.6091 40.3833 73.6758 38.8 72.0758C38.8 72.0424 38.7917 72.0258 38.775 72.0258C37.1917 70.4591 35.25 69.6758 32.95 69.6758C30.6667 69.6758 28.7333 70.4591 27.15 72.0258M35.275 75.5504C35.275 75.5671 35.2833 75.5754 35.3 75.5754C35.9 76.2087 36.2 76.9754 36.2 77.8754C36.2 78.7921 35.9 79.5587 35.3 80.1754C35.2833 80.1754 35.275 80.2004 35.275 80.2504C34.6417 80.8504 33.8667 81.1504 32.95 81.1504C32.05 81.1504 31.275 80.8504 30.625 80.2504L30.6 80.1754C30 79.5587 29.7 78.7921 29.7 77.8754C29.7 76.9754 30 76.2087 30.6 75.5754C30.6167 75.5754 30.625 75.5671 30.625 75.5504C31.275 74.9504 32.05 74.6504 32.95 74.6504C33.8667 74.6504 34.6417 74.9504 35.275 75.5504M76.1 49.251L66.975 49.251L67 50.976L76.125 50.976L76.1 49.251M66.925 46.9756L66.975 48.6506L76.1 48.6506L76.075 46.9756L66.925 46.9756M66.9 44.6504L66.925 46.3504L76.075 46.3504L76.075 44.6504L66.9 44.6504M111.1 53.8506L111.1 44.2256L76.95 44.2256L76.95 53.8506L111.1 53.8506M106.4 46.1504L106.4 47.2254L78.625 47.2254L78.625 46.1504L106.4 46.1504M106.4 48.376L106.4 49.401L78.625 49.401L78.625 48.376L106.4 48.376M106.475 50.626L106.475 51.651L78.7 51.651L78.7 50.626L106.475 50.626M86.725 72.0758C86.725 72.0424 86.7167 72.0258 86.7 72.0258C85.1167 70.4591 83.175 69.6758 80.875 69.6758C78.5917 69.6758 76.6583 70.4591 75.075 72.0258C75.0417 72.0258 75.025 72.0424 75.025 72.0758C73.4584 73.6758 72.675 75.6091 72.675 77.8758C72.675 80.1758 73.4584 82.1258 75.025 83.7258C75.025 83.7424 75.0417 83.7508 75.075 83.7508C76.6583 85.3341 78.5917 86.1258 80.875 86.1258C83.175 86.1258 85.1167 85.3341 86.7 83.7508C86.7167 83.7508 86.725 83.7424 86.725 83.7258C88.3083 82.1258 89.1 80.1758 89.1 77.8758C89.1 75.6091 88.3083 73.6758 86.725 72.0758M83.225 75.5754C83.825 76.2087 84.125 76.9754 84.125 77.8754C84.125 78.7921 83.825 79.5587 83.225 80.1754C83.2083 80.1754 83.2 80.2004 83.2 80.2504C82.5667 80.8504 81.7917 81.1504 80.875 81.1504C79.975 81.1504 79.2 80.8504 78.55 80.2504L78.525 80.1754C77.925 79.5587 77.625 78.7921 77.625 77.8754C77.625 76.9754 77.925 76.2087 78.525 75.5754C78.5417 75.5754 78.55 75.5671 78.55 75.5504C79.2 74.9504 79.975 74.6504 80.875 74.6504C81.7917 74.6504 82.5667 74.9504 83.2 75.5504C83.2 75.5671 83.2083 75.5754 83.225 75.5754M106.25 61.0752L106.3 60.9002L106.3 54.5752L77.025 54.5752L77.025 56.0502L106.25 61.1002L106.25 61.0752M104.775 72.0758C104.775 72.0424 104.767 72.0258 104.75 72.0258C103.167 70.4591 101.225 69.6758 98.925 69.6758C96.6417 69.6758 94.7083 70.4591 93.125 72.0258C93.0917 72.0258 93.075 72.0424 93.075 72.0758C91.5083 73.6758 90.725 75.6091 90.725 77.8758C90.725 80.1758 91.5083 82.1258 93.075 83.7258C93.075 83.7424 93.0917 83.7508 93.125 83.7508C94.7083 85.3341 96.6417 86.1258 98.925 86.1258C101.225 86.1258 103.167 85.3341 104.75 83.7508C104.767 83.7508 104.775 83.7424 104.775 83.7258C106.358 82.1258 107.15 80.1758 107.15 77.8758C107.15 75.6091 106.358 73.6758 104.775 72.0758M96.6 75.5504C97.25 74.9504 98.025 74.6504 98.925 74.6504C99.8417 74.6504 100.617 74.9504 101.25 75.5504C101.25 75.5671 101.258 75.5754 101.275 75.5754C101.875 76.2087 102.175 76.9754 102.175 77.8754C102.175 78.7921 101.875 79.5587 101.275 80.1754C101.258 80.1754 101.25 80.2004 101.25 80.2504C100.617 80.8504 99.8417 81.1504 98.925 81.1504C98.025 81.1504 97.25 80.8504 96.6 80.2504L96.575 80.1754C95.975 79.5587 95.675 78.7921 95.675 77.8754C95.675 76.9754 95.975 76.2087 96.575 75.5754C96.5917 75.5754 96.6 75.5671 96.6 75.5504M104.9 67.4254L106.725 67.4254L106.725 64.2504L101.825 61.0754L92.9 59.5254L84.85 63.0504L84.85 65.2004L71.975 65.2004L71.975 62.2504L63.55 62.2504L63.55 68.9254L62.8 68.9254L62.8 54.9254L56.5 54.9254L56.5 68.9254L55.775 68.9254L55.775 51.8504L54.7 50.7754L42.275 50.7754L41.425 51.7004L38.85 58.3004L17.7 63.2754L16.775 64.2254L16.775 75.0754L23.275 77.0254L23.45 76.6504L23.45 74.3004L29.225 68.0504L36.775 68.0254L42.675 74.4254L42.675 77.2504L70.675 77.1504L70.675 74.9504L76.175 68.9254L103.45 68.9254L108.95 74.9254L108.95 77.2504L111.225 77.2504L111.225 74.2504L104.9 67.4254M40.275 58.8752L39.85 58.4002L42.075 52.7002L44.125 52.7002L42.025 58.8752L40.275 58.8752M53.075 52.7002L53.075 59.0002L43.625 59.0002L45.8 52.7002L53.075 52.7002L53.075 52.7002Z" id="Group" fill="#FFFFFF" fill-rule="evenodd" stroke="none" />
  </g>
</svg>