<?xml version="1.0" encoding="utf-8"?>
<svg width="128px" height="128px" viewBox="0 0 128 128" version="1.1" xmlns:xlink="http://www.w3.org/1999/xlink" xmlns="http://www.w3.org/2000/svg">
  <defs>
    <path d="M2570 -10996L2570 -10996L2570 -10868L2442 -10868L2442 -10996L2570 -10996Z" id="path_1" />
    <clipPath id="clip_1">
      <use xlink:href="#path_1" clip-rule="evenodd" fill-rule="evenodd" />
    </clipPath>
  </defs>
  <g id="БМП" clip-path="url(#clip_1)">
    <path d="M2570 -10996L2570 -10996L2570 -10868L2442 -10868L2442 -10996L2570 -10996Z" id="БМП" fill="none" stroke="none" />
    <path d="M58.5751 54.8754C58.4084 54.5254 58.3251 54.1254 58.3251 53.6754C58.3251 53.2421 58.4084 52.8587 58.5751 52.5254L49.8751 52.5254L49.8751 54.8754L58.5751 54.8754M60.8 55.526L64.3 52.001L60.6 52.001C60.5334 52.001 60.475 52.0093 60.425 52.026L60.4001 52.026C60.0167 52.0926 59.6917 52.2593 59.425 52.526C59.3084 52.6426 59.2334 52.7426 59.2001 52.826L59.2001 52.876C59.0167 53.1093 58.925 53.4093 58.925 53.776C58.925 54.1426 59.0167 54.451 59.2001 54.701L59.2001 54.726C59.2334 54.826 59.3084 54.9343 59.425 55.051C59.675 55.301 59.9834 55.451 60.35 55.501C60.4501 55.5176 60.5417 55.526 60.625 55.526L60.8 55.526M34.8751 52.751L34.8751 54.626L49.0751 54.626L49.0751 52.751L34.8751 52.751M88.05 58.3008L85.4 51.4258L65.95 51.4258L59.025 58.3008L88.05 58.3008M112.15 65.6008C114.567 65.9341 116.275 66.9508 117.275 68.6508L118.8 64.8758L116.55 59.0508L32.675 59.0508L9.22504 64.0508L19.85 71.4508C20.85 67.9675 23.3667 66.0174 27.4 65.6008L112.15 65.6008M117.6 72.4758C117.567 71.5258 117.408 70.6924 117.125 69.9758C116.342 67.8758 114.667 66.6508 112.1 66.3008L27.45 66.3008C23.65 66.7174 21.3167 68.6424 20.45 72.0758C20.2667 72.7758 20.1417 73.5341 20.075 74.3508L20.025 75.1008L32.925 70.8758L111 70.8758L117.65 73.2258L117.6 72.4758M110.875 71.6758L105.925 71.6758C105.675 72.2091 105.55 72.7841 105.55 73.4008C105.55 74.5674 105.967 75.5591 106.8 76.3758C106.917 76.4924 107.025 76.6008 107.125 76.7008C107.892 77.3008 108.775 77.6008 109.775 77.6008C110.275 77.6008 110.742 77.5258 111.175 77.3758L104.475 82.0508C105.208 81.1508 105.575 80.0924 105.575 78.8758C105.575 78.4424 105.525 78.0341 105.425 77.6508C105.225 76.7674 104.783 75.9674 104.1 75.2508C103.1 74.2674 101.908 73.7758 100.525 73.7758C99.1417 73.7758 97.9584 74.2674 96.9751 75.2508C96.0251 76.2008 95.5251 77.2924 95.4751 78.5258C95.4584 78.6424 95.4501 78.7591 95.4501 78.8758C95.4501 80.2758 95.9584 81.4591 96.9751 82.4258C97.5084 82.9591 98.0917 83.3508 98.7251 83.6008L90.4751 83.6008C91.1251 83.3508 91.7251 82.9591 92.2751 82.4258C93.2417 81.4591 93.7251 80.2758 93.7251 78.8758C93.7251 78.7591 93.7251 78.6424 93.7251 78.5258C93.6584 77.2924 93.1751 76.2008 92.2751 75.2508C91.2584 74.2674 90.0584 73.7758 88.6751 73.7758C87.2917 73.7758 86.1084 74.2674 85.1251 75.2508C84.1917 76.2008 83.6917 77.2924 83.6251 78.5258C83.6084 78.6424 83.6001 78.7591 83.6001 78.8758C83.6001 80.2758 84.1084 81.4591 85.1251 82.4258C85.675 82.9591 86.2667 83.3508 86.9001 83.6008L78.0001 83.6008C78.6501 83.3508 79.2417 82.9591 79.7751 82.4258C80.7584 81.4591 81.2501 80.2758 81.2501 78.8758C81.2501 78.7591 81.2501 78.6424 81.2501 78.5258C81.1834 77.2924 80.6917 76.2008 79.7751 75.2508C78.7751 74.2674 77.5834 73.7758 76.2001 73.7758C74.8167 73.7758 73.6334 74.2674 72.6501 75.2508C71.7001 76.2008 71.2001 77.2924 71.1501 78.5258C71.1334 78.6424 71.1251 78.7591 71.1251 78.8758C71.1251 80.2758 71.6334 81.4591 72.6501 82.4258C73.1834 82.9591 73.7751 83.3508 74.4251 83.6008L65.5251 83.6008C66.1751 83.3508 66.7667 82.9591 67.3001 82.4258C68.2834 81.4591 68.7751 80.2758 68.7751 78.8758C68.7751 78.7591 68.7751 78.6424 68.7751 78.5258C68.7084 77.2924 68.2167 76.2008 67.3001 75.2508C66.3001 74.2674 65.1084 73.7758 63.7251 73.7758C62.3417 73.7758 61.1584 74.2674 60.1751 75.2508C59.2251 76.2008 58.7251 77.2924 58.6751 78.5258C58.6584 78.6424 58.6501 78.7591 58.6501 78.8758C58.6501 80.2758 59.1584 81.4591 60.1751 82.4258C60.7084 82.9591 61.2917 83.3508 61.9251 83.6008L52.9751 83.6008C53.6417 83.3508 54.2417 82.9591 54.7751 82.4258C55.7584 81.4591 56.2501 80.2758 56.2501 78.8758C56.2501 78.7591 56.2501 78.6424 56.2501 78.5258C56.1667 77.2924 55.6751 76.2008 54.7751 75.2508C53.7751 74.2674 52.5834 73.7758 51.2001 73.7758C49.8167 73.7758 48.6334 74.2674 47.6501 75.2508C46.7001 76.2008 46.2001 77.2924 46.1501 78.5258C46.1167 78.6424 46.1001 78.7591 46.1001 78.8758C46.1001 80.2758 46.6167 81.4591 47.6501 82.4258C48.1834 82.9591 48.7667 83.3508 49.4001 83.6008L40.2501 83.6008C40.9001 83.3508 41.5001 82.9591 42.0501 82.4258C43.0167 81.4591 43.5001 80.2758 43.5001 78.8758C43.5001 78.7591 43.5001 78.6424 43.5001 78.5258C43.4334 77.2924 42.9501 76.2008 42.0501 75.2508C41.0334 74.2674 39.8334 73.7758 38.4501 73.7758C37.0667 73.7758 35.8834 74.2674 34.9001 75.2508C34.3001 75.8508 33.8834 76.5091 33.6501 77.2258C33.4667 77.7424 33.3751 78.2924 33.3751 78.8758C33.3751 80.1924 33.8251 81.3174 34.7251 82.2508L28.3751 77.3758C28.8417 77.5258 29.3334 77.6008 29.8501 77.6008C30.9167 77.6008 31.8417 77.2758 32.6251 76.6258C32.7084 76.5424 32.7834 76.4591 32.8501 76.3758C33.6667 75.5591 34.0751 74.5674 34.0751 73.4008C34.0751 72.7841 33.9584 72.2091 33.7251 71.6758L33.0501 71.6758L23.8751 74.7008C24.2751 76.0508 25.0751 77.2508 26.2751 78.3008C26.3751 78.3674 26.4584 78.4424 26.5251 78.5258C26.5917 78.5424 26.6251 78.5591 26.6251 78.5758L33.5501 83.9258C33.6001 83.9758 33.6751 84.0424 33.7751 84.1258C35.0917 85.2424 36.5334 85.8424 38.1001 85.9258L101.325 85.9258C102.625 85.8924 103.783 85.4841 104.8 84.7008L104.825 84.6508C104.958 84.5508 105.075 84.4508 105.175 84.3508L112.425 79.3258C112.475 79.2758 112.542 79.2424 112.625 79.2258C112.658 79.1758 112.683 79.1424 112.7 79.1258C113.133 78.8424 113.525 78.5258 113.875 78.1758C115.025 76.9591 115.6 75.5174 115.6 73.8508C115.6 73.6674 115.6 73.5091 115.6 73.3758L110.875 71.6758M104.225 73.7758C104.208 73.5758 104.2 73.3674 104.2 73.1508C104.2 72.6341 104.267 72.1424 104.4 71.6758L35.3751 71.6758C35.4917 72.1424 35.5501 72.6258 35.5501 73.1258C36.4334 72.6258 37.4001 72.3758 38.4501 72.3758C40.1834 72.3758 41.6751 73.0091 42.9251 74.2758C42.9751 74.3091 43.0167 74.3508 43.0501 74.4008C43.1334 74.4674 43.2084 74.5508 43.2751 74.6508L46.5751 74.6508C46.5917 74.6174 46.6084 74.5924 46.6251 74.5758C46.6417 74.5258 46.6751 74.4841 46.7251 74.4508C47.9751 73.1841 49.4584 72.5508 51.1751 72.5508C52.9084 72.5508 54.4001 73.1841 55.6501 74.4508C55.6834 74.4841 55.7167 74.5258 55.7501 74.5758C55.7667 74.5924 55.8001 74.6174 55.8501 74.6508L59.1001 74.6508C59.1001 74.6174 59.1251 74.5758 59.1751 74.5258C60.4251 73.2591 61.9084 72.6258 63.6251 72.6258C65.3417 72.6258 66.8334 73.2591 68.1001 74.5258C68.1334 74.5758 68.1667 74.6174 68.2001 74.6508L71.6251 74.6258C71.6251 74.6091 71.6417 74.5758 71.6751 74.5258C72.9251 73.2591 74.4084 72.6258 76.1251 72.6258C77.8584 72.6258 79.3501 73.2591 80.6001 74.5258C80.6334 74.5758 80.6584 74.6091 80.6751 74.6258L84.2001 74.6258C84.2167 74.6091 84.2417 74.5758 84.2751 74.5258C85.5251 73.2591 87.0001 72.6258 88.7001 72.6258C90.4334 72.6258 91.9251 73.2591 93.1751 74.5258C93.2251 74.5758 93.2584 74.6091 93.2751 74.6258L96.1251 74.6258C96.1417 74.6091 96.1667 74.5758 96.2001 74.5258C97.4501 73.2591 98.9334 72.6258 100.65 72.6258C101.983 72.6258 103.175 73.0091 104.225 73.7758M104.425 38.7005C104.292 38.8505 104.225 39.0339 104.225 39.2505L104.225 58.5005L105.725 58.5005L105.7 39.2505C105.717 39.0172 105.65 38.8339 105.5 38.7005C105.35 38.5672 105.167 38.5005 104.95 38.5005C104.733 38.4839 104.558 38.5505 104.425 38.7005L104.425 38.7005Z" id="Group" fill="#FFFFFF" fill-rule="evenodd" stroke="none" />
  </g>
</svg>