<?xml version="1.0" encoding="utf-8"?>
<svg width="128px" height="128px" viewBox="0 0 128 128" version="1.1" xmlns:xlink="http://www.w3.org/1999/xlink" xmlns="http://www.w3.org/2000/svg">
  <defs>
    <path d="M2570 -10996L2570 -10996L2570 -10868L2442 -10868L2442 -10996L2570 -10996Z" id="path_1" />
    <clipPath id="clip_1">
      <use xlink:href="#path_1" clip-rule="evenodd" fill-rule="evenodd" />
    </clipPath>
  </defs>
  <g id="БТР" clip-path="url(#clip_1)">
    <path d="M2570 -10996L2570 -10996L2570 -10868L2442 -10868L2442 -10996L2570 -10996Z" id="БТР" fill="none" stroke="none" />
    <path d="M49 71.8754C48.9667 71.8754 48.95 71.8921 48.95 71.9254C47.3834 73.5254 46.6 75.4587 46.6 77.7254C46.6 80.0254 47.3834 81.9754 48.95 83.5754C48.95 83.5921 48.9667 83.6004 49 83.6004C50.5834 85.1837 52.5167 85.9754 54.8 85.9754C57.1 85.9754 59.0417 85.1837 60.625 83.6004C60.6417 83.6004 60.65 83.5921 60.65 83.5754C62.2334 81.9754 63.025 80.0254 63.025 77.7254C63.025 75.4587 62.2334 73.5254 60.65 71.9254C60.65 71.8921 60.6417 71.8754 60.625 71.8754C59.0417 70.3087 57.1 69.5254 54.8 69.5254C52.5167 69.5254 50.5834 70.3087 49 71.8754M57.1501 75.426C57.75 76.0593 58.05 76.826 58.05 77.726C58.05 78.6426 57.75 79.4093 57.1501 80.026C57.1334 80.026 57.125 80.051 57.125 80.101C56.4917 80.701 55.7167 81.001 54.8 81.001C53.9001 81.001 53.125 80.701 52.475 80.101L52.4501 80.026C51.85 79.4093 51.55 78.6426 51.55 77.726C51.55 76.826 51.85 76.0593 52.4501 75.426C52.4667 75.426 52.475 75.4176 52.475 75.401C53.125 74.801 53.9001 74.501 54.8 74.501C55.7167 74.501 56.4917 74.801 57.125 75.401C57.125 75.4176 57.1334 75.426 57.1501 75.426M64.275 57.2258L64.275 52.1008C64.275 51.2674 63.9 50.8341 63.15 50.8008L50.625 50.8008C50.1917 50.8008 49.8917 50.9258 49.725 51.1758C49.6584 51.2091 49.5917 51.2508 49.525 51.3008L42.6 57.2258L64.275 57.2258M30.9501 71.8754C30.9167 71.8754 30.9 71.8921 30.9 71.9254C29.3334 73.5254 28.55 75.4587 28.55 77.7254C28.55 80.0254 29.3334 81.9754 30.9 83.5754C30.9 83.5921 30.9167 83.6004 30.9501 83.6004C32.5334 85.1837 34.4667 85.9754 36.75 85.9754C39.05 85.9754 40.9917 85.1837 42.5751 83.6004C42.5917 83.6004 42.6 83.5921 42.6 83.5754C44.1834 81.9754 44.975 80.0254 44.975 77.7254C44.975 75.4587 44.1834 73.5254 42.6 71.9254C42.6 71.8921 42.5917 71.8754 42.5751 71.8754C40.9917 70.3087 39.05 69.5254 36.75 69.5254C34.4667 69.5254 32.5334 70.3087 30.9501 71.8754M39.1001 75.426C39.7001 76.0593 40.0001 76.826 40.0001 77.726C40.0001 78.6426 39.7001 79.4093 39.1001 80.026C39.0834 80.026 39.0751 80.051 39.0751 80.101C38.4417 80.701 37.6667 81.001 36.7501 81.001C35.8501 81.001 35.0751 80.701 34.4251 80.101L34.4001 80.026C33.8001 79.4093 33.5001 78.6426 33.5001 77.726C33.5001 76.826 33.8001 76.0593 34.4001 75.426C34.4167 75.426 34.4251 75.4176 34.4251 75.401C35.0751 74.801 35.8501 74.501 36.7501 74.501C37.6667 74.501 38.4417 74.801 39.0751 75.401C39.0751 75.4176 39.0834 75.426 39.1001 75.426M31.8 53.8256L31.8 52.3756L28.925 51.7256L28.925 54.6506L31.8 53.8256M36.825 53.826L36.825 55.276L43.65 55.276L47.075 52.376L32.525 52.376L32.525 53.826L36.825 53.826M71.75 37.3255C71.6167 37.4755 71.55 37.6589 71.55 37.8755L71.55 57.1255L73.05 57.1255L73.025 37.8755C73.0417 37.6422 72.975 37.4589 72.825 37.3255C72.675 37.1922 72.4917 37.1255 72.275 37.1255C72.0584 37.1089 71.8834 37.1755 71.75 37.3255M85.85 71.9254C85.85 71.8921 85.8417 71.8754 85.825 71.8754C84.2417 70.3087 82.3 69.5254 80 69.5254C77.7167 69.5254 75.7834 70.3087 74.2 71.8754C74.1667 71.8754 74.15 71.8921 74.15 71.9254C72.5834 73.5254 71.8 75.4587 71.8 77.7254C71.8 80.0254 72.5834 81.9754 74.15 83.5754C74.15 83.5921 74.1667 83.6004 74.2 83.6004C75.7834 85.1837 77.7167 85.9754 80 85.9754C82.3 85.9754 84.2417 85.1837 85.825 83.6004C85.8417 83.6004 85.85 83.5921 85.85 83.5754C87.4334 81.9754 88.225 80.0254 88.225 77.7254C88.225 75.4587 87.4334 73.5254 85.85 71.9254M82.3501 75.426C82.9501 76.0593 83.2501 76.826 83.2501 77.726C83.2501 78.6426 82.9501 79.4093 82.3501 80.026C82.3334 80.026 82.3251 80.051 82.3251 80.101C81.6917 80.701 80.9167 81.001 80.0001 81.001C79.1001 81.001 78.3251 80.701 77.6751 80.101L77.6501 80.026C77.0501 79.4093 76.7501 78.6426 76.7501 77.726C76.7501 76.826 77.0501 76.0593 77.6501 75.426C77.6667 75.426 77.6751 75.4176 77.6751 75.401C78.3251 74.801 79.1001 74.501 80.0001 74.501C80.9167 74.501 81.6917 74.801 82.3251 75.401C82.3251 75.4176 82.3334 75.426 82.3501 75.426M103.9 71.9254C103.9 71.8921 103.892 71.8754 103.875 71.8754C102.292 70.3087 100.35 69.5254 98.05 69.5254C95.7667 69.5254 93.8334 70.3087 92.25 71.8754C92.2167 71.8754 92.2 71.8921 92.2 71.9254C90.6334 73.5254 89.85 75.4587 89.85 77.7254C89.85 80.0254 90.6334 81.9754 92.2 83.5754C92.2 83.5921 92.2167 83.6004 92.25 83.6004C93.8334 85.1837 95.7667 85.9754 98.05 85.9754C100.35 85.9754 102.292 85.1837 103.875 83.6004C103.892 83.6004 103.9 83.5921 103.9 83.5754C105.483 81.9754 106.275 80.0254 106.275 77.7254C106.275 75.4587 105.483 73.5254 103.9 71.9254M100.375 75.401C100.375 75.4176 100.383 75.426 100.4 75.426C101 76.0593 101.3 76.826 101.3 77.726C101.3 78.6426 101 79.4093 100.4 80.026C100.383 80.026 100.375 80.051 100.375 80.101C99.7417 80.701 98.9667 81.001 98.05 81.001C97.15 81.001 96.375 80.701 95.725 80.101L95.7 80.026C95.1 79.4093 94.8 78.6426 94.8 77.726C94.8 76.826 95.1 76.0593 95.7 75.426C95.7167 75.426 95.725 75.4176 95.725 75.401C96.375 74.801 97.15 74.501 98.05 74.501C98.9667 74.501 99.7417 74.801 100.375 75.401M105.025 60.8258C104.942 60.8424 104.858 60.8508 104.775 60.8508L91.3 60.8508C91.2334 60.8508 91.175 60.8424 91.125 60.8258L87.925 57.9258L32.2 57.9258L28.1 61.8008L13.525 64.8008C13.375 64.8174 13.25 64.8841 13.15 65.0008C13.1334 65.0008 13.125 65.0091 13.125 65.0258C13.025 65.1424 12.975 65.2924 12.975 65.4758C12.975 65.6091 13.0334 65.7508 13.15 65.9008L25.725 79.1258C25.825 79.2424 25.9667 79.3091 26.15 79.3258C26.3167 79.3591 26.4667 79.3174 26.6 79.2008C26.7334 79.0841 26.825 78.9508 26.875 78.8008L28.2 71.9508L34.425 68.4758L42.525 68.4758L43.05 70.6008C43.0667 70.7341 43.1417 70.8591 43.275 70.9758C43.3917 71.0591 43.525 71.1008 43.675 71.1008L47.625 71.1008C47.7917 71.1008 47.9417 71.0591 48.075 70.9758C48.1917 70.8591 48.2667 70.7258 48.3 70.5758L48.725 68.4758L62 68.4758L64.275 77.6758C64.2917 77.8091 64.3667 77.9341 64.5 78.0508C64.6167 78.1341 64.7584 78.1758 64.925 78.1758L69.525 78.1758C69.6917 78.1758 69.8417 78.1341 69.975 78.0508C70.0917 77.9341 70.175 77.7924 70.225 77.6258L72.05 68.6008L85.7 68.6008L86.25 70.8508C86.2667 70.9841 86.35 71.1091 86.5 71.2258C86.6 71.3091 86.7334 71.3508 86.9 71.3508L90.825 71.3508C90.9917 71.3508 91.1417 71.3091 91.275 71.2258C91.3917 71.1091 91.475 70.9675 91.525 70.8008L91.95 68.6008L103.075 68.6008L106.45 70.7508L107.575 78.1008C107.608 78.2508 107.675 78.3758 107.775 78.4758C107.875 78.5758 107.992 78.6424 108.125 78.6758C108.258 78.7091 108.392 78.7008 108.525 78.6508L111.25 77.5758C111.333 77.5258 111.417 77.4674 111.5 77.4008C111.567 77.3008 111.617 77.2091 111.65 77.1258L115 65.3008C115.033 65.1174 115.008 64.9508 114.925 64.8008L112.375 59.8508L110.9 59.8508C110.833 59.8674 110.767 59.8758 110.7 59.8758L107.2 59.8758L105.025 60.8258M111.4 59.2752L111.4 56.6502L107.2 56.6502L104.9 55.5752L91.2 55.5752L88.675 57.7752L91.2 60.2252L104.9 60.2252L107.2 59.2752L111.4 59.2752L111.4 59.2752Z" id="Group" fill="#FFFFFF" fill-rule="evenodd" stroke="none" />
  </g>
</svg>