<?xml version="1.0" encoding="utf-8"?>
<svg width="128px" height="128px" viewBox="0 0 128 128" version="1.1" xmlns:xlink="http://www.w3.org/1999/xlink" xmlns="http://www.w3.org/2000/svg">
  <defs>
    <path d="M2570 -10996L2570 -10996L2570 -10868L2442 -10868L2442 -10996L2570 -10996Z" id="path_1" />
    <clipPath id="clip_1">
      <use xlink:href="#path_1" clip-rule="evenodd" fill-rule="evenodd" />
    </clipPath>
  </defs>
  <g id="Группа бронитехники" clip-path="url(#clip_1)">
    <path d="M2570 -10996L2570 -10996L2570 -10868L2442 -10868L2442 -10996L2570 -10996Z" id="Группа-бронитехники" fill="none" stroke="none" />
    <path d="M79.5251 82.7754L65.3751 82.7754L60.3501 87.7754L81.4001 87.7754L79.5251 82.7754M60.65 83.5498C60.5667 83.6498 60.4917 83.7165 60.425 83.7498L60.425 83.7998C60.325 83.9665 60.275 84.1915 60.275 84.4748C60.275 84.7415 60.325 84.9665 60.425 85.1498L60.425 85.1748C60.4917 85.2248 60.5667 85.2998 60.65 85.3998C60.8334 85.5831 61.0417 85.6915 61.275 85.7248C61.375 85.7415 61.45 85.7498 61.5 85.7498L61.6 85.7498L64.175 83.1748L61.5 83.1748C61.45 83.1748 61.4084 83.1748 61.375 83.1748L61.35 83.1748C61.0834 83.2248 60.85 83.3498 60.65 83.5498M53.125 85.0746L53.125 83.7246L42.775 83.7246L42.775 85.0746L53.125 85.0746M53.7001 83.5498L53.7001 85.2498L60.0001 85.2498C59.8834 85.0165 59.8251 84.7248 59.8251 84.3748C59.8251 84.0915 59.8834 83.8165 60.0001 83.5498L53.7001 83.5498M29.1501 54.75L29.1501 51.75L19.2001 51.75L19.2001 54.75L29.1501 54.75M38.3501 55.5502L38.3501 50.9502L29.9501 50.9502L29.9501 55.5502L38.3501 55.5502M39.0751 51.75L39.0751 54.75L48.3001 54.75L48.3001 51.75L39.0751 51.75M79.8001 27.875C79.8001 27.8417 79.7918 27.825 79.7751 27.825C78.6251 26.6917 77.2168 26.125 75.5501 26.125C73.8834 26.125 72.4751 26.6917 71.3251 27.825C71.3084 27.825 71.3001 27.8417 71.3001 27.875C70.1668 29.025 69.6001 30.425 69.6001 32.075C69.6001 33.7417 70.1668 35.1583 71.3001 36.325C71.3001 36.3417 71.3084 36.35 71.3251 36.35C72.4751 37.5 73.8834 38.075 75.5501 38.075C77.2168 38.075 78.6251 37.5 79.7751 36.35C79.7918 36.35 79.8001 36.3417 79.8001 36.325C80.9501 35.1583 81.5251 33.7417 81.5251 32.075C81.5251 30.425 80.9501 29.025 79.8001 27.875M77.25 30.3746L77.25 30.3996C77.6834 30.8663 77.9 31.4246 77.9 32.0746C77.9 32.7413 77.6834 33.2996 77.25 33.7496L77.25 33.7996C76.7834 34.2329 76.2167 34.4496 75.55 34.4496C74.8834 34.4496 74.3167 34.2329 73.85 33.7996L73.85 33.7496C73.4 33.2996 73.175 32.7413 73.175 32.0746C73.175 31.4246 73.4 30.8663 73.85 30.3996L73.85 30.3746C74.3167 29.9413 74.8834 29.7246 75.55 29.7246C76.2167 29.7246 76.7834 29.9413 77.25 30.3746M58.925 44.4746L58.925 44.9996L51.8 44.9996L51.8 46.2996L58.925 46.2996L58.925 46.8496L62 46.8496C61.8 47.1829 61.6584 47.5329 61.5751 47.8996L70.2751 47.8996C70.0917 47.0996 69.6917 46.3913 69.075 45.7746C68.2417 44.9413 67.2584 44.5163 66.125 44.4996L66.125 44.4746L58.925 44.4746M48.375 27.875C48.375 27.8417 48.3667 27.825 48.35 27.825C47.2 26.6917 45.7917 26.125 44.125 26.125C42.475 26.125 41.0667 26.6917 39.9 27.825C39.8834 27.825 39.875 27.8417 39.875 27.875C38.725 29.025 38.15 30.425 38.15 32.075C38.15 33.7417 38.725 35.1583 39.875 36.325C39.875 36.3417 39.8834 36.35 39.9 36.35C41.0667 37.5 42.475 38.075 44.125 38.075C45.7917 38.075 47.2 37.5 48.35 36.35C48.3667 36.35 48.375 36.3417 48.375 36.325C49.525 35.1583 50.1 33.7417 50.1 32.075C50.1 30.425 49.525 29.025 48.375 27.875M45.8001 30.3746C45.8001 30.3913 45.8085 30.3996 45.8251 30.3996C46.2751 30.8663 46.5001 31.4246 46.5001 32.0746C46.5001 32.7413 46.2751 33.2996 45.8251 33.7496C45.8085 33.7496 45.8001 33.7663 45.8001 33.7996C45.3501 34.2329 44.7918 34.4496 44.1251 34.4496C43.4751 34.4496 42.9085 34.2329 42.4251 33.7996L42.4001 33.7496C41.9668 33.2996 41.7501 32.7413 41.7501 32.0746C41.7501 31.4246 41.9668 30.8663 42.4001 30.3996C42.4168 30.3996 42.4251 30.3913 42.4251 30.3746C42.9085 29.9413 43.4751 29.7246 44.1251 29.7246C44.7918 29.7246 45.3501 29.9413 45.8001 30.3746M53 27.825L53 27.875C51.85 29.025 51.275 30.425 51.275 32.075C51.275 33.7417 51.85 35.1583 53 36.325L53 36.35C54.1667 37.5 55.5834 38.075 57.25 38.075C58.9167 38.075 60.325 37.5 61.475 36.35C61.4917 36.35 61.5 36.3417 61.5 36.325C62.65 35.1583 63.225 33.7417 63.225 32.075C63.225 30.425 62.65 29.025 61.5 27.875C61.5 27.8417 61.4917 27.825 61.475 27.825C60.325 26.6917 58.9167 26.125 57.25 26.125C55.5834 26.125 54.1667 26.6917 53 27.825M58.9251 30.3746L58.9251 30.3996C59.3751 30.8663 59.6001 31.4246 59.6001 32.0746C59.6001 32.7413 59.3751 33.2996 58.9251 33.7496L58.9251 33.7996C58.4751 34.2329 57.9168 34.4496 57.2501 34.4496C56.5835 34.4496 56.0168 34.2329 55.5501 33.7996L55.5251 33.7496C55.0918 33.2996 54.8751 32.7413 54.8751 32.0746C54.8751 31.4246 55.0918 30.8663 55.5251 30.3996C55.5418 30.3996 55.5501 30.3913 55.5501 30.3746C56.0168 29.9413 56.5835 29.7246 57.2501 29.7246C57.9168 29.7246 58.4751 29.9413 58.9251 30.3746M44.175 14.7004L44.175 15.7504L49.1501 15.7504L51.625 13.6504L41.05 13.6504L41.05 14.7004L44.175 14.7004M40.5251 14.6998L40.5251 13.6498L38.4501 13.1748L38.4501 15.2998L40.5251 14.6998M64.1251 17.15L64.1251 13.45C64.1251 12.85 63.8501 12.5333 63.3001 12.5L54.2001 12.5C53.8835 12.5 53.6668 12.5917 53.5501 12.775C53.5001 12.8083 53.4501 12.8333 53.4001 12.85L48.3751 17.15L64.1251 17.15M84.0251 52.8496L84.0251 48.3496L61.0501 48.4246L49.1001 51.6746L49.1001 54.7496L50.0501 55.9496L74.7251 55.9496L74.9751 54.6996C74.9918 54.5663 75.0334 54.4663 75.1001 54.3996C75.2001 54.2996 75.3168 54.2496 75.4501 54.2496L84.0251 52.8496M102.65 95.2754L103.775 92.5504L102.1 88.2754L41.175 88.2754L24.15 91.9504L31.9 97.3004C32.6167 94.7837 34.4334 93.3671 37.35 93.0504L98.95 93.0504C100.7 93.3004 101.933 94.0421 102.65 95.2754M102.9 98.0252C102.883 97.3585 102.767 96.7585 102.55 96.2252C101.983 94.7252 100.775 93.8419 98.9251 93.5752L37.4001 93.5752C34.6501 93.8919 32.9501 95.2919 32.3001 97.7752C32.1834 98.2752 32.0918 98.8252 32.0251 99.4252L31.9751 99.9752L41.3751 96.9252L98.1251 96.9252L102.925 98.6002L102.9 98.0252M94.4001 97.5C94.2167 97.85 94.1251 98.2667 94.1251 98.75C94.1251 99.5833 94.4417 100.292 95.0751 100.875C95.1584 100.975 95.2251 101.067 95.2751 101.15C95.8417 101.567 96.4917 101.775 97.2251 101.775C97.5917 101.775 97.9167 101.725 98.2001 101.625L93.3751 105.025C93.8751 104.358 94.1251 103.575 94.1251 102.675C94.1251 102.392 94.1001 102.1 94.0501 101.8C93.9001 101.183 93.5834 100.6 93.1001 100.05C92.3501 99.3667 91.4834 99.025 90.5001 99.025C89.5001 99.025 88.6334 99.3667 87.9001 100.05C87.2167 100.767 86.8584 101.567 86.8251 102.45C86.8251 102.55 86.8251 102.625 86.8251 102.675C86.8251 103.708 87.1834 104.575 87.9001 105.275C88.2834 105.675 88.7167 105.967 89.2001 106.15L83.1751 106.15C83.6584 105.967 84.1084 105.675 84.5251 105.275C85.1917 104.575 85.5251 103.708 85.5251 102.675C85.5251 102.625 85.5251 102.55 85.5251 102.45C85.4917 101.567 85.1584 100.767 84.5251 100.05C83.7751 99.3667 82.8917 99.025 81.8751 99.025C80.8917 99.025 80.0251 99.3667 79.2751 100.05C78.6251 100.767 78.2751 101.567 78.2251 102.45C78.2251 102.55 78.2251 102.625 78.2251 102.675C78.2251 103.708 78.5751 104.575 79.2751 105.275C79.6917 105.675 80.1334 105.967 80.6001 106.15L74.1251 106.15C74.5917 105.967 75.0251 105.675 75.4251 105.275C76.1251 104.575 76.4751 103.708 76.4751 102.675C76.4751 102.625 76.4751 102.55 76.4751 102.45C76.4251 101.567 76.0751 100.767 75.4251 100.05C74.6751 99.3667 73.8001 99.025 72.8001 99.025C71.8001 99.025 70.9501 99.3667 70.2501 100.05C69.5501 100.767 69.1834 101.567 69.1501 102.45C69.1501 102.55 69.1501 102.625 69.1501 102.675C69.1501 103.708 69.5167 104.575 70.2501 105.275C70.6334 105.675 71.0667 105.967 71.5501 106.15L65.0501 106.15C65.5167 105.967 65.9417 105.675 66.3251 105.275C67.0584 104.575 67.4251 103.708 67.4251 102.675C67.4251 102.625 67.4251 102.55 67.4251 102.45C67.3917 101.567 67.0251 100.767 66.3251 100.05C65.6251 99.3667 64.7667 99.025 63.7501 99.025C62.7501 99.025 61.8917 99.3667 61.1751 100.05C60.4751 100.767 60.1084 101.567 60.0751 102.45C60.0584 102.55 60.0501 102.625 60.0501 102.675C60.0501 103.708 60.4251 104.575 61.1751 105.275C61.5751 105.675 61.9917 105.967 62.4251 106.15L55.9251 106.15C56.4251 105.967 56.8751 105.675 57.2751 105.275C57.9584 104.575 58.3001 103.708 58.3001 102.675C58.3001 102.625 58.3001 102.55 58.3001 102.45C58.2501 101.567 57.9084 100.767 57.2751 100.05C56.5417 99.3667 55.6751 99.025 54.6751 99.025C53.6584 99.025 52.7917 99.3667 52.0751 100.05C51.3917 100.767 51.0334 101.567 51.0001 102.45C50.9501 102.55 50.9251 102.625 50.9251 102.675C50.9251 103.708 51.3084 104.575 52.0751 105.275C52.4584 105.675 52.8917 105.967 53.3751 106.15L46.7001 106.15C47.1501 105.967 47.5834 105.675 48.0001 105.275C48.7001 104.575 49.0501 103.708 49.0501 102.675C49.0501 102.625 49.0501 102.55 49.0501 102.45C49.0167 101.567 48.6667 100.767 48.0001 100.05C47.2667 99.3667 46.4001 99.025 45.4001 99.025C44.3667 99.025 43.5084 99.3667 42.8251 100.05C42.3917 100.517 42.0834 100.992 41.9001 101.475C41.7667 101.875 41.7001 102.275 41.7001 102.675C41.7001 103.642 42.0167 104.475 42.6501 105.175L38.0751 101.625C38.4251 101.725 38.7751 101.775 39.1251 101.775C39.9084 101.775 40.5834 101.542 41.1501 101.075C41.2167 100.992 41.2751 100.925 41.3251 100.875C41.9251 100.292 42.2251 99.5833 42.2251 98.75C42.2251 98.2667 42.1417 97.85 41.9751 97.5L41.4501 97.5L34.8251 99.675C35.0917 100.675 35.6667 101.55 36.5501 102.3C36.6167 102.333 36.6667 102.383 36.7001 102.45L36.7751 102.475L41.8001 106.375C41.8501 106.425 41.9167 106.467 42.0001 106.5C42.9501 107.317 44.0001 107.758 45.1501 107.825L91.0751 107.825C92.0084 107.792 92.8501 107.5 93.6001 106.95L93.6251 106.875C93.7084 106.825 93.7917 106.767 93.8751 106.7L99.1251 103.025C99.1751 102.992 99.2334 102.967 99.3001 102.95C99.3167 102.933 99.3334 102.917 99.3501 102.9C99.6667 102.7 99.9501 102.458 100.2 102.175C101.033 101.308 101.45 100.275 101.45 99.075C101.45 98.925 101.45 98.8083 101.45 98.725L98.0251 97.5L94.4001 97.5M93.175 98.525C93.175 98.1583 93.2167 97.8167 93.3 97.5L43.15 97.5C43.2334 97.8167 43.275 98.1583 43.275 98.525C43.925 98.1583 44.6334 97.975 45.4 97.975C46.65 97.975 47.7334 98.4417 48.65 99.375C48.7 99.3917 48.7334 99.4167 48.75 99.45C48.8 99.5167 48.8417 99.5833 48.875 99.65L51.3 99.65C51.3167 99.6333 51.3334 99.6167 51.35 99.6C51.35 99.5667 51.3667 99.525 51.4 99.475C52.3167 98.5583 53.4 98.1 54.65 98.1C55.8834 98.1 56.9584 98.5583 57.875 99.475C57.9084 99.525 57.9417 99.5667 57.975 99.6C57.975 99.6167 57.9917 99.6333 58.025 99.65L60.375 99.65C60.375 99.6333 60.3917 99.6 60.425 99.55C61.3584 98.65 62.4334 98.2 63.65 98.2C64.9334 98.2 66.025 98.65 66.925 99.55C66.9584 99.6 66.9917 99.6333 67.025 99.65L69.5 99.625L69.525 99.55C70.4417 98.65 71.525 98.2 72.775 98.2C74.0084 98.2 75.0917 98.65 76.025 99.55C76.025 99.6 76.0417 99.625 76.075 99.625L78.65 99.625C78.6667 99.625 78.675 99.6 78.675 99.55C79.5917 98.65 80.6667 98.2 81.9 98.2C83.15 98.2 84.2334 98.65 85.15 99.55C85.1667 99.6 85.1834 99.625 85.2 99.625L87.275 99.625C87.2917 99.625 87.3084 99.6 87.325 99.55C88.2584 98.65 89.3417 98.2 90.575 98.2C91.525 98.2 92.3917 98.475 93.175 99.025C93.175 98.875 93.175 98.7083 93.175 98.525M89.85 66.6746L96.825 63.3246L95.7 60.9746L35.3 60.9746C35.2667 60.9746 35.2417 60.9829 35.225 60.9996C34.3917 61.0496 33.675 61.4163 33.075 62.0996C32.5084 62.6829 32.1584 63.3913 32.025 64.2246L42.5 66.5996L89.85 66.6746M91.075 67.5004C91.0084 67.5171 90.9417 67.5421 90.875 67.5754C90.8584 67.5921 90.825 67.6254 90.775 67.6754L90.675 67.7504C90.6917 67.7171 90.7167 67.6921 90.75 67.6754C91.1 67.2754 91.375 66.8587 91.575 66.4254L89.2 67.5254C89.1167 67.5587 89.0334 67.5754 88.95 67.5754L85.45 67.5754C85.4667 67.5921 85.5 67.6254 85.55 67.6754C86.25 68.3754 87.1167 68.7254 88.15 68.7254C88.7167 68.7254 89.25 68.6087 89.75 68.3754L85.175 71.4254C85.1417 71.4421 85.1 71.4837 85.05 71.5504C84.9667 71.6171 84.8834 71.6837 84.8 71.7504L84.825 71.7254C84.3584 72.0921 83.8 72.2754 83.15 72.2754L80.75 72.2754C81.5 72.1087 82.1667 71.7504 82.75 71.2004C83.55 70.3671 83.95 69.3837 83.95 68.2504C83.95 68.0004 83.9334 67.7754 83.9 67.5754L75.675 67.5504C75.625 67.7671 75.6 68.0004 75.6 68.2504C75.6 69.3837 76.025 70.3671 76.875 71.2004C77.4417 71.7504 78.1084 72.1087 78.875 72.2754L70.675 72.2754C71.425 72.1087 72.0834 71.7504 72.65 71.2004C73.45 70.3671 73.85 69.3837 73.85 68.2504C73.85 68.0004 73.8334 67.7671 73.8 67.5504L65.625 67.5504C65.575 67.7671 65.55 68.0004 65.55 68.2504C65.55 69.3837 65.9667 70.3671 66.8 71.2004C67.35 71.7504 68 72.1087 68.75 72.2754L60.5 72.2754C61.2667 72.1087 61.9417 71.7504 62.525 71.2004C63.325 70.3671 63.725 69.3837 63.725 68.2504C63.725 68.0004 63.7167 67.7671 63.7 67.5504L55.475 67.5254C55.4084 67.7587 55.375 68.0004 55.375 68.2504C55.375 69.3837 55.8 70.3671 56.65 71.2004C57.2167 71.7504 57.8834 72.1087 58.65 72.2754L50.425 72.2754C51.2084 72.1087 51.8834 71.7504 52.45 71.2004C53.25 70.3671 53.65 69.3837 53.65 68.2504C53.65 68.0004 53.6334 67.7587 53.6 67.5254L45.375 67.5004C45.325 67.7504 45.3 68.0004 45.3 68.2504C45.3 69.3837 45.7167 70.3671 46.55 71.2004C47.1334 71.7504 47.8 72.1087 48.55 72.2754L43.05 72.2754C42.3 72.2587 41.675 71.9837 41.175 71.4504L41.125 71.4504C41.075 71.3671 41.0334 71.3087 41 71.2754L38.2 68.8004C38.8667 69.3337 39.6334 69.6004 40.5 69.6004C41.5334 69.6004 42.4 69.2504 43.1 68.5504C43.4167 68.2504 43.6667 67.9004 43.85 67.5004L43.225 67.5004C43.1917 67.5004 43.1584 67.5004 43.125 67.5004L36.85 66.0504C36.8667 67.0171 37.2167 67.8504 37.9 68.5504L36.475 67.3254C36.425 67.2587 36.3584 67.1921 36.275 67.1254C35.8917 66.7421 35.65 66.2837 35.55 65.7504L33.775 65.3504C33.825 66.5004 34.2667 67.5004 35.1 68.3504C35.1667 68.3837 35.225 68.4421 35.275 68.5254L39.825 72.5504C39.8584 72.5837 39.9167 72.6254 40 72.6754C40.8334 73.5087 41.85 73.9587 43.05 74.0254L83.175 74.0254C84.1917 74.0087 85.1 73.7087 85.9 73.1254L85.9 73.0754C85.9834 73.0087 86.0667 72.9421 86.15 72.8754L91.7 69.1254C91.75 69.0587 91.8167 69.0254 91.9 69.0254C91.9167 69.0087 91.9334 68.9921 91.95 68.9754C92.2834 68.7754 92.5834 68.5337 92.85 68.2504C93.7 67.3837 94.1417 66.3504 94.175 65.1504L92.275 66.0504C92.125 66.4171 91.9167 66.7504 91.65 67.0504C91.4667 67.2337 91.275 67.3837 91.075 67.5004M90.3501 55.0752L81.8501 55.0752L76.9251 56.2002C76.2751 56.3169 75.8667 56.4002 75.7001 56.4502C75.5834 56.4669 75.4334 56.4752 75.2501 56.4752L50.4251 56.4752C50.3751 56.4752 50.3334 56.4752 50.3001 56.4752L49.8001 56.4752L42.5751 60.3002L91.6501 60.3002L90.3501 55.0752M97.225 58.4996C97.8584 57.8663 98.175 57.0996 98.175 56.1996C98.175 55.3163 97.8584 54.5413 97.225 53.8746C96.5917 53.2746 95.8167 52.9746 94.9 52.9746C94.0167 52.9746 93.2417 53.2746 92.575 53.8746C91.9584 54.5413 91.65 55.3163 91.65 56.1996C91.65 57.0996 91.9584 57.8663 92.575 58.4996C93.2417 59.1663 94.0167 59.4996 94.9 59.4996C95.8167 59.4996 96.5917 59.1663 97.225 58.4996M92.9001 27.875C92.9001 27.8417 92.8918 27.825 92.8751 27.825C91.7417 26.6917 90.3334 26.125 88.6501 26.125C87.0001 26.125 85.6001 26.6917 84.4501 27.825C84.4167 27.825 84.4001 27.8417 84.4001 27.875C83.2667 29.025 82.7001 30.425 82.7001 32.075C82.7001 33.7417 83.2667 35.1583 84.4001 36.325C84.4001 36.3417 84.4167 36.35 84.4501 36.35C85.6001 37.5 87.0001 38.075 88.6501 38.075C90.3334 38.075 91.7417 37.5 92.8751 36.35C92.8918 36.35 92.9001 36.3417 92.9001 36.325C94.0501 35.1583 94.6251 33.7417 94.6251 32.075C94.6251 30.425 94.0501 29.025 92.9001 27.875M90.35 30.3746C90.35 30.3913 90.3584 30.3996 90.375 30.3996C90.8084 30.8663 91.025 31.4246 91.025 32.0746C91.025 32.7413 90.8084 33.2996 90.375 33.7496C90.3584 33.7496 90.35 33.7663 90.35 33.7996C89.8834 34.2329 89.3167 34.4496 88.65 34.4496C88 34.4496 87.4334 34.2329 86.95 33.7996L86.95 33.7496C86.5167 33.2996 86.3 32.7413 86.3 32.0746C86.3 31.4246 86.5167 30.8663 86.95 30.3996L86.95 30.3746C87.4334 29.9413 88 29.7246 88.65 29.7246C89.3167 29.7246 89.8834 29.9413 90.35 30.3746M83.7501 19.8248C83.7168 19.8248 83.6834 19.8165 83.6501 19.7998L81.3001 17.6748L40.8001 17.6748L37.8501 20.4998L27.2251 22.6748C27.1418 22.6915 27.0584 22.7415 26.9751 22.8248C26.9584 22.8248 26.9501 22.8331 26.9501 22.8498C26.8834 22.9331 26.8501 23.0331 26.8501 23.1498C26.8501 23.2498 26.8918 23.3581 26.9751 23.4748L36.1001 33.0998C36.1834 33.1831 36.2834 33.2331 36.4001 33.2498C36.5334 33.2665 36.6501 33.2331 36.7501 33.1498C36.8334 33.0665 36.8918 32.9665 36.9251 32.8498L37.9251 27.8748L42.4251 25.3498L48.3001 25.3498L48.7001 26.8748C48.7001 26.9748 48.7501 27.0748 48.8501 27.1748C48.9501 27.2248 49.0501 27.2498 49.1501 27.2498L52.0001 27.2498C52.1334 27.2498 52.2501 27.2248 52.3501 27.1748C52.4334 27.0748 52.4834 26.9665 52.5001 26.8498L52.8251 25.3498L62.4751 25.3498L64.1251 32.0248C64.1418 32.1415 64.2001 32.2331 64.3001 32.2998C64.3668 32.3665 64.4668 32.3998 64.6001 32.3998L67.9501 32.3998C68.0501 32.3998 68.1501 32.3665 68.2501 32.2998C68.3501 32.2331 68.4168 32.1331 68.4501 31.9998L69.7501 25.4248L79.7001 25.4248L80.0751 27.0748C80.0918 27.1748 80.1584 27.2665 80.2751 27.3498C80.3418 27.3998 80.4334 27.4248 80.5501 27.4248L83.4001 27.4248C83.5334 27.4248 83.6418 27.3998 83.7251 27.3498C83.8084 27.2665 83.8751 27.1581 83.9251 27.0248L84.2501 25.4248L92.3251 25.4248L94.7751 26.9998L95.5751 32.3248C95.5918 32.4415 95.6418 32.5415 95.7251 32.6248C95.7918 32.6915 95.8834 32.7331 96.0001 32.7498C96.0834 32.7665 96.1751 32.7665 96.2751 32.7498L98.2501 31.9498C98.3001 31.9165 98.3584 31.8748 98.4251 31.8248C98.4751 31.7581 98.5168 31.6998 98.5501 31.6498L100.975 23.0498C100.992 22.9165 100.975 22.7915 100.925 22.6748L99.0751 19.0748L98.0001 19.0748C97.9501 19.0915 97.9001 19.0998 97.8501 19.0998L95.3001 19.0998L93.7251 19.7998C93.6584 19.8165 93.6001 19.8248 93.5501 19.8248L83.7501 19.8248M83.7001 15.9746L81.8501 17.5746L83.7001 19.3496L93.6251 19.3496L95.3001 18.6746L98.3501 18.6746L98.3501 16.7496L95.3001 16.7496L93.6251 15.9746L83.7001 15.9746L83.7001 15.9746Z" id="Group" fill="#FFFFFF" fill-rule="evenodd" stroke="none" />
  </g>
</svg>