<?xml version="1.0" encoding="utf-8"?>
<svg width="128px" height="128px" viewBox="0 0 128 128" version="1.1" xmlns:xlink="http://www.w3.org/1999/xlink" xmlns="http://www.w3.org/2000/svg">
  <defs>
    <path d="M2570 -10996L2570 -10996L2570 -10868L2442 -10868L2442 -10996L2570 -10996Z" id="path_1" />
    <clipPath id="clip_1">
      <use xlink:href="#path_1" clip-rule="evenodd" fill-rule="evenodd" />
    </clipPath>
  </defs>
  <g id="Группа пехоты" clip-path="url(#clip_1)">
    <path d="M2570 -10996L2570 -10996L2570 -10868L2442 -10868L2442 -10996L2570 -10996Z" id="Группа-пехоты" fill="none" stroke="none" />
    <path d="M69.325 73.7L69.05 73.3L67.95 73.15L67.425 72.375L66.1 72.375C65.9346 72.8048 65.8096 73.2464 65.725 73.7L69.325 73.7M34.3 57.6504C34.1307 58.0802 34.0057 58.5219 33.925 58.9754L37.525 58.9754L37.25 58.5754L36.15 58.4254L35.625 57.6504L34.3 57.6504M60.2 48.1498C60.3167 48.1998 60.4417 48.2248 60.575 48.2248C60.7768 48.9649 61.1351 49.6399 61.65 50.2498C60.7099 50.9033 60.2183 51.6699 60.175 52.5498L59.675 52.5498C58.3007 52.5498 57.609 53.1831 57.6 54.4498C57.0888 54.4008 56.6305 54.5091 56.225 54.7748L53.15 56.8998L53.125 56.8998L49.35 59.4998L49.375 59.4998L47.625 60.7248C47.1083 61.0581 46.8083 61.5498 46.725 62.1998C46.6417 62.8498 46.8 63.4581 47.2 64.0248C47.4524 64.3824 47.7524 64.6574 48.1 64.8498C48.3803 65.0865 48.7053 65.2365 49.075 65.2998L52.8 65.8748L52.8 65.8998L57.325 66.5998L57.325 66.5748L57.6 66.5998L57.6 71.7748C57.6 71.9581 57.625 72.1165 57.675 72.2498L57.675 72.2248C57.7878 72.9645 58.1878 73.4229 58.875 73.5998C58.7821 73.8921 58.7321 74.2004 58.725 74.5248L58.725 87.5748C58.7108 87.6946 58.7025 87.8113 58.7 87.9248L58.7 101.425C58.7167 102.225 59 102.9 59.55 103.45C60.1167 104.016 60.8 104.3 61.6 104.3C62.4 104.3 63.0833 104.016 63.65 103.45C64.2 102.9 64.4833 102.241 64.5 101.475L64.5 97.5498L64.475 97.5498L64.475 93.4498L64.5 93.4498L64.5 88.3998C64.5142 88.2967 64.5225 88.1884 64.525 88.0748L64.525 84.1498L64.5 84.1498L64.5 81.2248C64.5248 81.2252 64.5498 81.2252 64.575 81.2248L67.575 81.2248C67.7844 81.2279 67.9844 81.2112 68.175 81.1748L68.175 87.4248C68.1453 87.589 68.1286 87.7557 68.125 87.9248L68.125 101.425C68.1417 102.225 68.425 102.9 68.975 103.45C69.5416 104.016 70.225 104.3 71.025 104.3C71.825 104.3 72.5083 104.016 73.075 103.45C73.625 102.9 73.9083 102.241 73.925 101.475L73.925 97.5498L73.9 97.5498L73.9 93.4498L73.925 93.4498L73.925 88.5498C73.9547 88.4023 73.9713 88.2439 73.975 88.0748L73.975 84.1498L73.95 84.1498L73.95 80.1498L69.625 74.0998C69.6361 74.1917 69.6527 74.2833 69.675 74.3748C69.7488 74.8548 69.9405 75.2715 70.25 75.6248L69 78.8248L69 78.8498C68.7762 79.2869 68.5012 79.5869 68.175 79.7498C67.9913 79.8438 67.7913 79.8938 67.575 79.8998L64.575 79.8998C64.5582 79.8994 64.5415 79.8994 64.525 79.8998C63.9508 79.8659 63.5342 79.5492 63.275 78.9498L62.8 77.8248L61.35 77.9748L61.075 75.9248C61.0489 75.191 61.0573 74.4993 61.1 73.8498L61.05 73.6998L61.125 73.6998C61.1631 73.2368 61.2215 72.7951 61.3 72.3748L59.675 72.3748C59.2916 72.3748 59.05 72.2331 58.95 71.9498L58.95 71.9248C58.9333 71.8748 58.925 71.8248 58.925 71.7748L58.925 66.7998L59.425 66.8748C60.0416 66.9748 60.5917 66.8165 61.075 66.3998C61.1578 66.3308 61.2328 66.2558 61.3 66.1748L62.4 67.7748L64.15 66.6498L64.225 66.7248L64.2 66.7498L64.625 67.4248C64.4583 67.5248 64.3 67.6748 64.15 67.8748C63.8414 68.2165 63.5247 68.6748 63.2 69.2498C63.036 69.5442 62.8693 69.8692 62.7 70.2248C62.4066 70.8566 62.1816 71.5733 62.025 72.3748C61.955 72.7934 61.8967 73.235 61.85 73.6998C61.8159 74.2707 61.8075 74.8707 61.825 75.4998C61.8234 75.5637 61.8234 75.6221 61.825 75.6748L62.025 77.2248L65.275 76.8998L65.15 75.4248C65.0916 74.8294 65.0999 74.2544 65.175 73.6998C65.251 73.2444 65.3676 72.8027 65.525 72.3748C65.7356 71.8363 66.0189 71.3197 66.375 70.8248C66.5083 70.6248 66.6416 70.4415 66.775 70.2748L68.4 72.6748L69.5 72.8248L77.775 84.3748L79.15 83.3998L78.45 82.4248L80.425 81.0748L79.9 80.2498L77.225 80.6748L74.875 77.4248L75.6 76.0248L75.475 75.8748C75.2295 75.5227 74.9795 75.1727 74.725 74.8248L75.85 73.3748L75.85 73.3498L77.8 70.8248L77.8 70.8498L80.425 67.4498C80.7583 66.9831 80.875 66.4331 80.775 65.7998C80.7168 65.5163 80.6168 65.2497 80.475 64.9998L79.4 62.2998L79.4 62.3248L78.225 59.3748L78.225 59.3498L76.65 55.3748C76.4167 54.8415 76.0083 54.4581 75.425 54.2248C75.168 54.1345 74.9097 54.0845 74.65 54.0748C74.5029 53.0581 73.8279 52.5498 72.625 52.5498L72.45 52.5498C72.4023 51.5798 71.8189 50.7548 70.7 50.0748C71.1398 49.4977 71.4564 48.8643 71.65 48.1748C71.6667 48.1748 71.6917 48.1748 71.725 48.1748C71.875 48.1748 72.0166 48.1415 72.15 48.0748L72.975 47.4498C73.0583 47.3665 73.1333 47.2665 73.2 47.1498C73.25 47.0498 73.2583 46.9331 73.225 46.7998L72.8 43.9998C72.6 42.6331 71.9417 41.4415 70.825 40.4248L70.8 40.4248C69.4833 39.2581 67.875 38.6748 65.975 38.6748C64.0917 38.6748 62.4833 39.2581 61.15 40.4248C60.1 41.3748 59.45 42.4748 59.2 43.7248C59.1833 43.7581 59.175 43.7915 59.175 43.8248L58.875 46.9998C58.875 47.0998 58.9083 47.2165 58.975 47.3498C59.025 47.4665 59.1166 47.5581 59.25 47.6248L60.2 48.1498M60.225 46.975L60.5 43.925C60.7 42.9583 61.2083 42.125 62.025 41.425C63.125 40.475 64.4416 40 65.975 40C67.5083 40 68.825 40.475 69.925 41.425C70.8083 42.2083 71.325 43.1333 71.475 44.2L71.875 46.775L69.875 45.15C69.7416 45.0333 69.6 44.975 69.45 44.975L62.55 45.225C62.4 45.225 62.2666 45.275 62.15 45.375L60.225 46.975M71.125 52.7498C71.125 52.8831 71.1167 52.9998 71.1 53.0998C70.95 53.5498 70.5417 53.9665 69.875 54.3498C68.8917 54.8998 67.7083 55.1748 66.325 55.1748C64.9583 55.1748 63.775 54.8998 62.775 54.3498C62.0917 53.9665 61.6917 53.5415 61.575 53.0748C61.5417 53.0248 61.525 52.9915 61.525 52.9748C61.5083 52.8915 61.5 52.8165 61.5 52.7498C61.5469 52.1716 61.9219 51.6549 62.625 51.1998C63.623 51.9831 64.7814 52.3748 66.1 52.3748C67.4993 52.3748 68.7243 51.9331 69.775 51.0498C69.8072 51.0799 69.8406 51.1049 69.875 51.1248C70.675 51.5915 71.0917 52.1331 71.125 52.7498M72.25 53.875L72.625 53.875C73.0529 53.875 73.2862 54.0417 73.325 54.375C73.3417 54.4253 73.35 54.4753 73.35 54.525L73.35 68.375L71.675 70.525L67.425 64.475L67.375 64.5L65.05 61.2L64.25 61.45L59.2 54.025L59.025 54.15C59.1414 53.9667 59.358 53.875 59.675 53.875L60.45 53.875C60.7334 54.4583 61.2917 55.0083 62.125 55.525C63.2917 56.175 64.6917 56.5 66.325 56.5C67.975 56.5 69.3834 56.175 70.55 55.525C71.3834 55.0083 71.95 54.4583 72.25 53.875M61.975 64.75L62.625 64.625L63.525 65.8L62.65 66.3L61.85 65.225C61.9087 65.0768 61.9504 64.9184 61.975 64.75M62.4 62.1504L61.275 62.5254C60.9677 62.2158 60.5927 62.0242 60.15 61.9504L58.925 61.7504L58.925 58.5254L58.8 58.3754L56.4 60.2254L53.6 58.1754L54.3 57.7004L56.4 59.2254L58.9 57.2754L58.925 57.3004L62.6 62.0504L62.375 62.1254L62.4 62.1504M74.675 66.6496L74.675 63.9746L75.375 65.7496L74.675 66.6496M57.6 59.875L57.6 61.55L55.625 61.25L57.6 59.875M58.15 66.6748L58.0833 66.7748L58.05 66.6748L58.15 66.6748M69.75 63.1504L68.05 64.4254L70.375 67.7754L72.05 66.5004L69.75 63.1504M41.425 32.0752L41 29.2752C40.8 27.9085 40.1417 26.7169 39.025 25.7002L39 25.7002C37.6833 24.5335 36.075 23.9502 34.175 23.9502C32.2917 23.9502 30.6833 24.5335 29.35 25.7002C28.3 26.6502 27.65 27.7502 27.4 29.0002C27.3833 29.0335 27.375 29.0669 27.375 29.1002L27.075 32.2752C27.075 32.3752 27.1083 32.4919 27.175 32.6252C27.225 32.7419 27.3167 32.8335 27.45 32.9002L28.4 33.4252C28.5167 33.4752 28.6417 33.5002 28.775 33.5002C28.9768 34.2403 29.3351 34.9153 29.85 35.5252C28.91 36.1786 28.4183 36.9453 28.375 37.8252L27.875 37.8252C26.5007 37.8252 25.809 38.4585 25.8 39.7252C25.2888 39.6762 24.8305 39.7845 24.425 40.0502L21.35 42.1752L21.325 42.1752L17.55 44.7752L17.575 44.7752L15.825 46.0002C15.3083 46.3335 15.0083 46.8252 14.925 47.4752C14.8417 48.1252 15 48.7335 15.4 49.3002C15.6524 49.6578 15.9524 49.9328 16.3 50.1252C16.5803 50.3618 16.9053 50.5119 17.275 50.5752L21 51.1502L21 51.1752L25.525 51.8752L25.525 51.8502L25.8 51.8752L25.8 57.0502C25.8 57.2335 25.825 57.3919 25.875 57.5252L25.875 57.5002C25.9878 58.2399 26.3878 58.6982 27.075 58.8752C26.9821 59.1674 26.9321 59.4758 26.925 59.8002L26.925 72.8502C26.9108 72.97 26.9025 73.0867 26.9 73.2002L26.9 86.7002C26.9167 87.5002 27.2 88.1752 27.75 88.7252C28.3167 89.2919 29 89.5752 29.8 89.5752C30.6 89.5752 31.2833 89.2919 31.85 88.7252C32.4 88.1752 32.6833 87.5169 32.7 86.7502L32.7 82.8252L32.675 82.8252L32.675 78.7252L32.7 78.7252L32.7 73.6752C32.7142 73.5721 32.7225 73.4637 32.725 73.3502L32.725 69.4252L32.7 69.4252L32.7 66.5002C32.7248 66.5006 32.7498 66.5006 32.775 66.5002L35.775 66.5002C35.9844 66.5033 36.1844 66.4866 36.375 66.4502L36.375 72.7002C36.3453 72.8644 36.3286 73.0311 36.325 73.2002L36.325 86.7002C36.3417 87.5002 36.625 88.1752 37.175 88.7252C37.7417 89.2919 38.425 89.5752 39.225 89.5752C40.025 89.5752 40.7083 89.2919 41.275 88.7252C41.825 88.1752 42.1083 87.5169 42.125 86.7502L42.125 82.8252L42.1 82.8252L42.1 78.7252L42.125 78.7252L42.125 73.8252C42.1547 73.6777 42.1713 73.5193 42.175 73.3502L42.175 69.4252L42.15 69.4252L42.15 65.4252L37.825 59.3752C37.8363 59.4682 37.853 59.5598 37.875 59.6502C37.9488 60.1302 38.1405 60.5469 38.45 60.9002L37.2 64.1002L37.2 64.1252C36.9762 64.5622 36.7012 64.8622 36.375 65.0252C36.1913 65.1192 35.9913 65.1692 35.775 65.1752L32.775 65.1752C32.7582 65.1747 32.7415 65.1747 32.725 65.1752C32.1508 65.1413 31.7342 64.8246 31.475 64.2252L31 63.1002L29.55 63.2502L29.275 61.2002C29.249 60.4663 29.2573 59.7747 29.3 59.1252L29.25 58.9752L29.325 58.9752C29.3629 58.5121 29.4213 58.0704 29.5 57.6502L27.875 57.6502C27.4917 57.6502 27.25 57.5085 27.15 57.2252L27.15 57.2002C27.1333 57.1502 27.125 57.1002 27.125 57.0502L27.125 52.0752L27.625 52.1502C28.2417 52.2502 28.7917 52.0919 29.275 51.6752C29.3577 51.6062 29.4327 51.5312 29.5 51.4502L30.6 53.0502L32.35 51.9252L32.425 52.0002L32.4 52.0252L32.825 52.7002C32.6583 52.8002 32.5 52.9502 32.35 53.1502C31.8833 53.6669 31.4 54.4502 30.9 55.5002C30.6065 56.1324 30.3815 56.849 30.225 57.6502C30.1604 58.0688 30.1104 58.5105 30.075 58.9752C30.0265 59.5448 30.0098 60.1448 30.025 60.7752C30.0234 60.8391 30.0234 60.8975 30.025 60.9502L30.225 62.5002L33.475 62.1752L33.35 60.7002C33.2916 60.1048 33.2999 59.5298 33.375 58.9752C33.451 58.5198 33.5676 58.0781 33.725 57.6502C33.9356 57.1117 34.2189 56.5951 34.575 56.1002C34.7083 55.9002 34.8417 55.7169 34.975 55.5502L36.6 57.9502L37.7 58.1002L45.975 69.6502L47.35 68.6752L46.65 67.7002L48.625 66.3502L48.1 65.5252L45.425 65.9502L43.075 62.7002L43.8 61.3002L43.675 61.1502C43.4296 60.798 43.1796 60.448 42.925 60.1002L44.05 58.6502L44.05 58.6252L46 56.1002L46 56.1252L48.625 52.7252C48.9583 52.2585 49.075 51.7085 48.975 51.0752C48.9169 50.7917 48.8169 50.5251 48.675 50.2752L47.6 47.5752L47.6 47.6002L46.425 44.6502L46.425 44.6252L44.85 40.6502C44.6167 40.1169 44.2083 39.7335 43.625 39.5002C43.368 39.4099 43.1097 39.3599 42.85 39.3502C42.7029 38.3335 42.0279 37.8252 40.825 37.8252L40.65 37.8252C40.6023 36.8552 40.0189 36.0302 38.9 35.3502C39.3398 34.773 39.6564 34.1397 39.85 33.4502C39.8667 33.4502 39.8917 33.4502 39.925 33.4502C40.075 33.4502 40.2167 33.4169 40.35 33.3502L41.175 32.7252C41.2583 32.6419 41.3333 32.5419 41.4 32.4252C41.45 32.3252 41.4583 32.2085 41.425 32.0752M40.825 39.1504C41.2528 39.1504 41.4862 39.3171 41.525 39.6504C41.5416 39.7006 41.55 39.7506 41.55 39.8004L41.55 53.6504L39.875 55.8004L35.625 49.7504L35.575 49.7754L33.25 46.4754L32.45 46.7254L27.4 39.3004L27.225 39.4254C27.3413 39.2421 27.558 39.1504 27.875 39.1504L28.65 39.1504C28.9333 39.7337 29.4916 40.2837 30.325 40.8004C31.4916 41.4504 32.8916 41.7754 34.525 41.7754C36.175 41.7754 37.5833 41.4504 38.75 40.8004C39.5833 40.2837 40.15 39.7337 40.45 39.1504L40.825 39.1504M38.125 26.7004C39.0083 27.4837 39.525 28.4087 39.675 29.4754L40.075 32.0504L38.075 30.4254C37.9417 30.3087 37.8 30.2504 37.65 30.2504L30.75 30.5004C30.6 30.5004 30.4667 30.5504 30.35 30.6504L28.425 32.2504L28.7 29.2004C28.9 28.2337 29.4083 27.4004 30.225 26.7004C31.325 25.7504 32.6417 25.2754 34.175 25.2754C35.7083 25.2754 37.025 25.7504 38.125 26.7004M37.975 36.3252C38.0072 36.3553 38.0406 36.3803 38.075 36.4002C38.875 36.8669 39.2917 37.4085 39.325 38.0252C39.325 38.1585 39.3167 38.2752 39.3 38.3752C39.15 38.8252 38.7417 39.2419 38.075 39.6252C37.0917 40.1752 35.9083 40.4502 34.525 40.4502C33.1583 40.4502 31.975 40.1752 30.975 39.6252C30.2917 39.2419 29.8917 38.8169 29.775 38.3502C29.7417 38.3002 29.725 38.2669 29.725 38.2502C29.7083 38.1669 29.7 38.0919 29.7 38.0252C29.7469 37.447 30.1219 36.9303 30.825 36.4752C31.8231 37.2585 32.9814 37.6502 34.3 37.6502C35.6994 37.6502 36.9244 37.2085 37.975 36.3252M27.1 42.5498L27.125 42.5748L30.8 47.3248L30.575 47.3998L30.6 47.4248L29.475 47.7998C29.1677 47.4902 28.7927 47.2986 28.35 47.2248L27.125 47.0248L27.125 43.7998L27 43.6498L24.6 45.4998L21.8 43.4498L22.5 42.9748L24.6 44.4998L27.1 42.5498M25.8 45.1504L25.8 46.8254L23.825 46.5254L25.8 45.1504M30.825 49.9004L31.725 51.0754L30.85 51.5754L30.05 50.5004C30.1073 50.3538 30.149 50.1955 30.175 50.0254L30.825 49.9004M26.3 52.0502L26.25 51.9502L26.35 51.9502L26.3 52.0502M43.575 51.025L42.875 51.95L42.875 49.25L43.575 51.025M36.25 49.6998L38.575 53.0498L40.25 51.7748L37.95 48.4248L36.25 49.6998M100.3 58.7752L100.025 58.3752L98.925 58.2252L98.4 57.4502L97.075 57.4502C96.9096 57.8799 96.7846 58.3216 96.7 58.7752L100.3 58.7752M91.55 33.3C91.7518 34.0401 92.1102 34.7151 92.625 35.325C91.685 35.9785 91.1933 36.7451 91.15 37.625L90.65 37.625C89.2757 37.625 88.5841 38.2583 88.575 39.525C88.0638 39.476 87.6055 39.5843 87.2 39.85L84.125 41.975L84.1 41.975L80.325 44.575L80.35 44.575L78.6 45.8C78.0834 46.1333 77.7834 46.625 77.7 47.275C77.6167 47.925 77.775 48.5333 78.175 49.1C78.4274 49.4576 78.7274 49.7326 79.075 49.925C79.3554 50.1617 79.6804 50.3117 80.05 50.375L83.775 50.95L83.775 50.975L88.3 51.675L88.3 51.65L88.575 51.675L88.575 56.85C88.575 57.0333 88.6 57.1917 88.65 57.325L88.65 57.3C88.7628 58.0397 89.1628 58.4981 89.85 58.675C89.7571 58.9673 89.7071 59.2756 89.7 59.6L89.7 72.65C89.6858 72.7698 89.6775 72.8865 89.675 73L89.675 86.5C89.6917 87.3 89.975 87.975 90.525 88.525C91.0917 89.0917 91.775 89.375 92.575 89.375C93.375 89.375 94.0584 89.0917 94.625 88.525C95.175 87.975 95.4584 87.3167 95.475 86.55L95.475 82.625L95.45 82.625L95.45 78.525L95.475 78.525L95.475 73.475C95.4892 73.3719 95.4976 73.2635 95.5 73.15L95.5 69.225L95.475 69.225L95.475 66.3C95.4998 66.3004 95.5248 66.3004 95.55 66.3L98.55 66.3C98.7595 66.3031 98.9595 66.2864 99.15 66.25L99.15 72.5C99.1203 72.6642 99.1037 72.8309 99.1 73L99.1 86.5C99.1167 87.3 99.4 87.975 99.95 88.525C100.517 89.0917 101.2 89.375 102 89.375C102.8 89.375 103.483 89.0917 104.05 88.525C104.6 87.975 104.883 87.3167 104.9 86.55L104.9 82.625L104.875 82.625L104.875 78.525L104.9 78.525L104.9 73.625C104.93 73.4775 104.946 73.3191 104.95 73.15L104.95 69.225L104.925 69.225L104.925 65.225L100.6 59.175C100.611 59.2682 100.628 59.3598 100.65 59.45C100.724 59.93 100.916 60.3467 101.225 60.7L99.975 63.9L99.975 63.925C99.7512 64.3621 99.4762 64.662 99.15 64.825C98.9663 64.919 98.7663 64.969 98.55 64.975L95.55 64.975C95.5332 64.9745 95.5166 64.9745 95.5 64.975C94.9259 64.9411 94.5092 64.6244 94.25 64.025L93.775 62.9L92.325 63.05L92.05 61C92.024 60.2662 92.0323 59.5745 92.075 58.925L92.025 58.775L92.1 58.775C92.1382 58.312 92.1965 57.8703 92.275 57.45L90.65 57.45C90.2667 57.45 90.025 57.3083 89.925 57.025L89.925 57C89.9084 56.95 89.9 56.9 89.9 56.85L89.9 51.875L90.4 51.95C91.0167 52.05 91.5667 51.8917 92.05 51.475C92.1329 51.4059 92.2079 51.3309 92.275 51.25L93.375 52.85L95.125 51.725L95.2 51.8L95.175 51.825L95.6 52.5C95.4334 52.6 95.275 52.75 95.125 52.95C94.6584 53.4667 94.175 54.25 93.675 55.3C93.3817 55.9318 93.1567 56.6485 93 57.45C92.93 57.8686 92.8717 58.3102 92.825 58.775C92.7908 59.3469 92.7825 59.9552 92.8 60.6C92.7985 60.6484 92.7985 60.6984 92.8 60.75L93 62.3L96.25 61.975L96.125 60.5C96.0666 59.9046 96.075 59.3296 96.15 58.775C96.226 58.3196 96.3427 57.8779 96.5 57.45C96.7106 56.9115 96.994 56.3949 97.35 55.9C97.4834 55.7 97.6167 55.5167 97.75 55.35L99.375 57.75L100.475 57.9L108.75 69.45L110.125 68.475L109.425 67.5L111.4 66.15L110.875 65.325L108.2 65.75L105.85 62.5L106.575 61.1L106.45 60.95C106.205 60.5979 105.955 60.2479 105.7 59.9L106.825 58.45L106.825 58.425L108.775 55.9L108.775 55.925L111.4 52.525C111.733 52.0583 111.85 51.5083 111.75 50.875C111.692 50.5915 111.592 50.3249 111.45 50.075L110.375 47.375L110.375 47.4L109.2 44.45L109.2 44.425L107.625 40.45C107.392 39.9167 106.983 39.5333 106.4 39.3C106.143 39.2097 105.885 39.1597 105.625 39.15C105.478 38.1333 104.803 37.625 103.6 37.625L103.425 37.625C103.377 36.655 102.794 35.83 101.675 35.15C102.115 34.5729 102.431 33.9395 102.625 33.25C102.642 33.25 102.667 33.25 102.7 33.25C102.85 33.25 102.992 33.2167 103.125 33.15L103.95 32.525C104.033 32.4417 104.108 32.3417 104.175 32.225C104.225 32.125 104.233 32.0083 104.2 31.875L103.775 29.075C103.575 27.7083 102.917 26.5167 101.8 25.5L101.775 25.5C100.458 24.3333 98.85 23.75 96.95 23.75C95.0667 23.75 93.4584 24.3333 92.125 25.5C91.075 26.45 90.425 27.55 90.175 28.8C90.1584 28.8333 90.15 28.8667 90.15 28.9L89.85 32.075C89.85 32.175 89.8834 32.2917 89.95 32.425C90 32.5417 90.0917 32.6333 90.225 32.7L91.175 33.225C91.2917 33.275 91.4167 33.3 91.55 33.3M100.85 30.2252C100.717 30.1085 100.575 30.0502 100.425 30.0502L93.525 30.3002C93.375 30.3002 93.2417 30.3502 93.125 30.4502L91.2 32.0502L91.475 29.0002C91.675 28.0335 92.1833 27.2002 93 26.5002C94.1 25.5502 95.4167 25.0752 96.95 25.0752C98.4833 25.0752 99.8 25.5502 100.9 26.5002C101.783 27.2835 102.3 28.2085 102.45 29.2752L102.85 31.8502L100.85 30.2252M100.75 36.125C100.782 36.1551 100.816 36.1801 100.85 36.2C101.65 36.6667 102.067 37.2083 102.1 37.825C102.1 37.9583 102.092 38.075 102.075 38.175C101.925 38.625 101.517 39.0417 100.85 39.425C99.8666 39.975 98.6833 40.25 97.3 40.25C95.9333 40.25 94.75 39.975 93.75 39.425C93.0666 39.0417 92.6666 38.6167 92.55 38.15C92.5166 38.1 92.5 38.0667 92.5 38.05C92.4833 37.9667 92.475 37.8917 92.475 37.825C92.5219 37.2468 92.8969 36.7301 93.6 36.275C94.598 37.0583 95.7564 37.45 97.075 37.45C98.4743 37.45 99.6993 37.0083 100.75 36.125M89.875 42.3496L89.9 42.3746L93.575 47.1246L93.35 47.1996L93.375 47.2246L92.25 47.5996C91.9427 47.29 91.5677 47.0984 91.125 47.0246L89.9 46.8246L89.9 43.5996L89.775 43.4496L87.375 45.2996L84.575 43.2496L85.275 42.7746L87.375 44.2996L89.875 42.3496M90 39.2252C90.1163 39.0419 90.333 38.9502 90.65 38.9502L91.425 38.9502C91.7083 39.5335 92.2667 40.0835 93.1 40.6002C94.2667 41.2502 95.6667 41.5752 97.3 41.5752C98.95 41.5752 100.358 41.2502 101.525 40.6002C102.358 40.0835 102.925 39.5335 103.225 38.9502L103.6 38.9502C104.028 38.9502 104.261 39.1169 104.3 39.4502C104.317 39.5005 104.325 39.5505 104.325 39.6002L104.325 53.4502L102.65 55.6002L98.4 49.5502L98.35 49.5752L96.025 46.2752L95.225 46.5252L90.175 39.1002L90 39.2252M86.6 46.3252L88.575 44.9502L88.575 46.6252L86.6 46.3252M106.35 50.8248L105.65 51.7498L105.65 49.0498L106.35 50.8248M93.625 51.3752L92.825 50.3002C92.8824 50.1536 92.924 49.9953 92.95 49.8252L93.6 49.7002L94.5 50.8752L93.625 51.3752M89.125 51.75L89.0584 51.85L89.025 51.75L89.125 51.75M101.35 52.8496L103.025 51.5746L100.725 48.2246L99.025 49.4996L101.35 52.8496L101.35 52.8496ZM58.0833 66.7748L58.15 66.6748L58.05 66.6748L58.0833 66.7748M26.25 51.9502L26.3 52.0502L26.35 51.9502L26.25 51.9502M89.0584 51.85L89.125 51.75L89.025 51.75L89.0584 51.85L89.0584 51.85Z" id="Group" fill="#FFFFFF" fill-rule="evenodd" stroke="none" />
  </g>
</svg>