<?xml version="1.0" encoding="utf-8"?>
<svg width="128px" height="128px" viewBox="0 0 128 128" version="1.1" xmlns:xlink="http://www.w3.org/1999/xlink" xmlns="http://www.w3.org/2000/svg">
  <defs>
    <path d="M2570 -10996L2570 -10996L2570 -10868L2442 -10868L2442 -10996L2570 -10996Z" id="path_1" />
    <clipPath id="clip_1">
      <use xlink:href="#path_1" clip-rule="evenodd" fill-rule="evenodd" />
    </clipPath>
  </defs>
  <g id="ДОТ" clip-path="url(#clip_1)">
    <path d="M2570 -10996L2570 -10996L2570 -10868L2442 -10868L2442 -10996L2570 -10996Z" id="ДОТ" fill="none" stroke="none" />
    <path d="M98.9999 91.1754C99.1598 91.5421 99.4098 91.8171 99.7499 92.0004C100.084 92.2522 100.534 92.3772 101.1 92.3754L110.175 92.3754C110.946 92.3817 111.521 92.1817 111.9 91.7754C112.284 92.1848 112.859 92.3848 113.625 92.3754L122.725 92.3754C124.275 92.3816 125.05 91.5983 125.05 90.0254L125.05 85.6254C125.05 85.5754 125.05 85.5337 125.05 85.5004C125.051 85.4689 125.051 85.4356 125.05 85.4004C124.991 84.8176 124.807 84.3593 124.5 84.0254C124.385 83.8843 124.235 83.7843 124.05 83.7254C123.868 83.6688 123.693 83.5854 123.525 83.4754C123.429 83.4168 123.321 83.3751 123.2 83.3504C123.056 83.3189 122.898 83.3022 122.725 83.3004L118.675 83.3004C118.726 83.0949 118.751 82.8699 118.75 82.6254L118.75 78.2004C118.763 76.6837 117.988 75.9254 116.425 75.9254L107.35 75.9254C106.933 75.9249 106.574 75.9832 106.275 76.1004L106.275 47.6504L21.7999 47.6504L21.7999 76.0254C21.5451 75.9582 21.2534 75.9249 20.9249 75.9254L11.8499 75.9254C10.3333 75.9254 9.57493 76.6837 9.57493 78.2004L9.57493 82.6254C9.57493 82.8699 9.59159 83.0949 9.62493 83.3004L5.59993 83.3004C4.06659 83.2941 3.29993 84.0691 3.29993 85.6254L3.29993 90.0254C3.29993 91.6044 4.06659 92.3878 5.59993 92.3754L14.6749 92.3754C15.4464 92.3817 16.0214 92.1817 16.3999 91.7754C16.7838 92.1848 17.3588 92.3848 18.1249 92.3754L27.2249 92.3754C27.7723 92.3748 28.2223 92.2582 28.5749 92.0254C28.5828 92.0205 28.5911 92.0121 28.5999 92.0004C28.9401 91.8171 29.1901 91.5421 29.3499 91.1754L98.9999 91.1754M90.7749 65.9248C91.3082 66.0081 91.5916 66.3415 91.6249 66.9248L91.6249 87.1748C91.5916 87.7581 91.3082 88.0915 90.7749 88.1748L37.1999 88.1748C36.6665 88.0956 36.3915 87.754 36.3749 87.1498L36.3749 66.9248C36.3915 66.3415 36.6665 66.0081 37.1999 65.9248L90.7749 65.9248M14.6749 85.2998C14.8749 85.306 14.9749 85.4143 14.9749 85.6248L14.9749 90.0248C14.9749 90.2462 14.8749 90.3628 14.6749 90.3748L5.59993 90.3748C5.39993 90.3628 5.29993 90.2462 5.29993 90.0248L5.29993 85.6248C5.29993 85.4143 5.39993 85.306 5.59993 85.2998L14.6749 85.2998M11.575 78.1998C11.575 78.0165 11.6666 77.9248 11.85 77.9248L20.9249 77.9248C21.0485 77.9257 21.1485 77.9424 21.225 77.9748L21.25 77.9748C21.2515 78.0312 21.2515 78.1062 21.25 78.1998L21.25 82.6248C21.2493 82.7333 21.2326 82.8166 21.2 82.8748C21.1353 82.9072 21.0436 82.9239 20.9249 82.9248L11.85 82.9248C11.6666 82.9185 11.575 82.8185 11.575 82.6248L11.575 78.1998M17.85 85.6248C17.85 85.4202 17.9416 85.3119 18.125 85.2998L27.175 85.2998C27.2966 85.362 27.4133 85.4204 27.525 85.4748C27.5386 85.5114 27.547 85.5531 27.55 85.5998L27.55 90.0248C27.5483 90.1631 27.5316 90.2631 27.5 90.3248C27.4237 90.3586 27.332 90.3753 27.225 90.3748L18.125 90.3748C17.9416 90.3572 17.85 90.2406 17.85 90.0248L17.85 85.6248M100.8 85.6248C100.8 85.4143 100.9 85.306 101.1 85.2998L110.175 85.2998C110.375 85.306 110.475 85.4143 110.475 85.6248L110.475 90.0248C110.475 90.2462 110.375 90.3628 110.175 90.3748L101.1 90.3748C100.998 90.373 100.915 90.3563 100.85 90.3248C100.818 90.2631 100.802 90.1631 100.8 90.0248L100.8 85.6248M116.75 82.6248C116.744 82.8248 116.635 82.9248 116.425 82.9248L107.35 82.9248C107.25 82.9236 107.175 82.9153 107.125 82.8998L107.1 82.8998C107.085 82.8303 107.077 82.7386 107.075 82.6248L107.075 78.1998C107.077 78.0982 107.085 78.0149 107.1 77.9498L107.125 77.9248C107.175 77.926 107.25 77.926 107.35 77.9248L116.425 77.9248C116.63 77.9248 116.738 78.0165 116.75 78.1998L116.75 82.6248M113.35 85.6248C113.35 85.4202 113.442 85.3119 113.625 85.2998L122.675 85.2998C122.797 85.362 122.913 85.4204 123.025 85.4748C123.039 85.5114 123.047 85.5531 123.05 85.5998L123.05 90.0248C123.05 90.2521 122.942 90.3688 122.725 90.3748L113.625 90.3748C113.442 90.3572 113.35 90.2406 113.35 90.0248L113.35 85.6248M90.0749 67.2002C89.9416 67.1169 89.7916 67.0752 89.6249 67.0752L38.4499 67.0752C38.2833 67.0752 38.1333 67.1169 37.9999 67.2002C37.8666 67.2835 37.7749 67.4085 37.7249 67.5752L37.6749 67.6502L37.6749 67.7252C37.6583 67.7585 37.6499 67.8002 37.6499 67.8502L37.6499 86.3002C37.6333 86.4169 37.6499 86.5419 37.6999 86.6752L37.7249 86.6752L37.7499 86.7252C37.7999 86.8419 37.8833 86.9335 37.9999 87.0002L38.0999 87.0752L38.1249 87.0752C38.1249 87.0919 38.1416 87.1002 38.1749 87.1002L38.1999 87.1252C38.2666 87.1419 38.3499 87.1502 38.4499 87.1502L89.6499 87.1502C89.6833 87.1502 89.7166 87.1502 89.7499 87.1502L89.8749 87.1252C89.8916 87.1085 89.9083 87.1002 89.9249 87.1002L89.9499 87.1002C89.9499 87.0835 89.9583 87.0752 89.9749 87.0752C90.0416 87.0419 90.1083 87.0002 90.1749 86.9502L90.1749 86.9252C90.2416 86.8419 90.3083 86.7585 90.3749 86.6752L90.3999 86.6002C90.4166 86.5335 90.4249 86.4585 90.4249 86.3752L90.4249 67.8502C90.4249 67.8002 90.4249 67.7585 90.4249 67.7252L90.3999 67.6252C90.3499 67.4419 90.2416 67.3002 90.0749 67.2002M88.8499 68.8252L88.8499 85.1502L78.0499 80.3252L78.0499 70.8752L88.8499 68.8252M39.225 85.1502L39.225 68.8252L50.025 70.8752L50.025 80.3252L39.225 85.1502M50.8999 69.4254L46.7999 68.6504L81.2999 68.6504L77.1749 69.4254L50.8999 69.4254M42.1499 85.575L50.9999 81.625L77.0999 81.625L85.9249 85.575L42.1499 85.575M106.275 46.425L106.275 46.2L100.175 37.75L27.9499 37.75L21.7999 46.2L21.7999 46.425L106.275 46.425L106.275 46.425Z" id="Group" fill="#FFFFFF" fill-rule="evenodd" stroke="none" />
  </g>
</svg>