<?xml version="1.0" encoding="utf-8"?>
<svg width="128px" height="128px" viewBox="0 0 128 128" version="1.1" xmlns:xlink="http://www.w3.org/1999/xlink" xmlns="http://www.w3.org/2000/svg">
  <defs>
    <path d="M2570 -10996L2570 -10996L2570 -10868L2442 -10868L2442 -10996L2570 -10996Z" id="path_1" />
    <clipPath id="clip_1">
      <use xlink:href="#path_1" clip-rule="evenodd" fill-rule="evenodd" />
    </clipPath>
  </defs>
  <g id="ЗРК" clip-path="url(#clip_1)">
    <path d="M2570 -10996L2570 -10996L2570 -10868L2442 -10868L2442 -10996L2570 -10996Z" id="ЗРК" fill="none" stroke="none" />
    <path d="M53.45 68.0002L53.45 60.8252C51.75 63.0752 51.75 65.4669 53.45 68.0002M66.5 67.9494L66.5 60.7994L54.225 60.7744L54.225 67.9494L66.5 67.9494M77.475 67.9498L77.475 60.7998L69.35 60.7998L69.35 67.9498L77.475 67.9498M68.65 60.7998L67.175 60.7998L67.175 67.9498L68.65 67.9498L68.65 60.7998M79.65 60.7998L78.175 60.7998L78.175 67.9498L79.65 67.9498L79.65 60.7998M110.475 67.9494L110.475 60.7994L80.425 60.7744L80.425 67.9494L110.475 67.9494M113.15 66.8502C113.65 66.3502 113.967 65.7835 114.1 65.1502L114.9 65.1502L114.9 63.5252L114.1 63.5252C113.967 62.8919 113.65 62.3252 113.15 61.8252C112.583 61.2752 111.925 60.9419 111.175 60.8252L111.175 67.8752C111.925 67.7585 112.583 67.4169 113.15 66.8502M53.475 60.1252L53.475 52.9502C51.775 55.2002 51.775 57.5919 53.475 60.1252M66.525 60.0744L66.525 52.9244L54.25 52.8994L54.25 60.0744L66.525 60.0744M67.2 60.0748L68.675 60.0748L68.675 52.9248L67.2 52.9248L67.2 60.0748M78.2 52.9248L78.2 60.0748L79.675 60.0748L79.675 52.9248L78.2 52.9248M77.5 60.0748L77.5 52.9248L69.375 52.9248L69.375 60.0748L77.5 60.0748M110.5 60.0744L110.5 52.9244L80.45 52.8994L80.45 60.0744L110.5 60.0744M114.125 55.6502C113.992 55.0169 113.675 54.4502 113.175 53.9502C112.608 53.4002 111.95 53.0669 111.2 52.9502L111.2 60.0002C111.95 59.8835 112.608 59.5419 113.175 58.9752C113.675 58.4752 113.992 57.9085 114.125 57.2752L114.925 57.2752L114.925 55.6502L114.125 55.6502M55.425 74.2744L55.425 77.2994L67.1 77.2994L67.1 74.2744L55.425 74.2744M47.1 68.0748L51.725 68.0748L51.725 51.1748L47.1 51.1748L47.1 68.0748M49.175 70.3994C47.5583 70.3994 46.1833 70.9411 45.05 72.0244C45.0333 72.0244 45.025 72.0411 45.025 72.0744C43.925 73.2077 43.375 74.5827 43.375 76.1994C43.375 77.8161 43.925 79.1911 45.025 80.3244C45.025 80.3411 45.0333 80.3494 45.05 80.3494C46.1833 81.4494 47.5583 81.9994 49.175 81.9994C50.8083 81.9994 52.175 81.4494 53.275 80.3494C53.2917 80.3494 53.3 80.3411 53.3 80.3244C54.4167 79.1911 54.975 77.8161 54.975 76.1994C54.975 74.5827 54.4167 73.2077 53.3 72.0744C53.3 72.0411 53.2917 72.0244 53.275 72.0244C52.175 70.9411 50.8083 70.3994 49.175 70.3994M50.825 74.5494C51.2583 74.9994 51.475 75.5494 51.475 76.1994C51.475 76.8327 51.2583 77.3661 50.825 77.7994L50.825 77.8494C50.375 78.2661 49.825 78.4744 49.175 78.4744C48.5417 78.4744 47.9917 78.2661 47.525 77.8494L47.5 77.7994C47.0833 77.3661 46.875 76.8327 46.875 76.1994C46.875 75.5494 47.0833 74.9994 47.5 74.5494L47.525 74.5494C47.9917 74.1161 48.5417 73.8994 49.175 73.8994C49.825 73.8994 50.375 74.1161 50.825 74.5494M69.475 72.0494C69.4584 72.0494 69.45 72.0661 69.45 72.0994C68.3334 73.2327 67.775 74.5994 67.775 76.1994C67.775 77.8161 68.3334 79.1994 69.45 80.3494C69.45 80.3661 69.4584 80.3744 69.475 80.3744C70.5917 81.4744 71.9584 82.0244 73.575 82.0244C75.2084 82.0244 76.5834 81.4744 77.7 80.3744C77.7167 80.3744 77.725 80.3661 77.725 80.3494C78.8417 79.1994 79.4 77.8161 79.4 76.1994C79.4 74.5994 78.8417 73.2327 77.725 72.0994C77.725 72.0661 77.7167 72.0494 77.7 72.0494C76.5834 70.9494 75.2084 70.3994 73.575 70.3994C71.9584 70.3994 70.5917 70.9494 69.475 72.0494M75.225 74.5744L75.25 74.5744C75.6667 75.0244 75.875 75.5661 75.875 76.1994C75.875 76.8494 75.6667 77.3911 75.25 77.8244C75.2334 77.8244 75.225 77.8411 75.225 77.8744C74.775 78.2911 74.225 78.4994 73.575 78.4994C72.9417 78.4994 72.3917 78.2911 71.925 77.8744L71.925 77.8244C71.4917 77.3911 71.275 76.8494 71.275 76.1994C71.275 75.5661 71.4917 75.0244 71.925 74.5744C72.3917 74.1244 72.9417 73.8994 73.575 73.8994C74.225 73.8994 74.775 74.1244 75.225 74.5744M38.05 74.2744L38.05 77.3244L42.725 77.3244L42.725 74.2744L38.05 74.2744M38.8 77.75L38.6 78.8L42.275 78.8L42.075 77.75L38.8 77.75M14.425 71.5996L13.075 71.5996L13.075 73.0746L19.15 77.3246L19.7 77.3246L19.725 77.3496L25.4 77.3496L25.4 74.2746L15.925 74.2746L14.425 71.5996M32.375 52.0752L32.375 68.0752L46.425 68.0752L46.425 52.0752L32.375 52.0752M27.8 72.0244C27.7834 72.0244 27.775 72.0411 27.775 72.0744C26.6584 73.2077 26.1 74.5827 26.1 76.1994C26.1 77.8161 26.6584 79.1911 27.775 80.3244C27.775 80.3411 27.7834 80.3494 27.8 80.3494C28.9167 81.4494 30.2834 81.9994 31.9 81.9994C33.5334 81.9994 34.9084 81.4494 36.025 80.3494L36.025 80.3244C37.1584 79.1911 37.725 77.8161 37.725 76.1994C37.725 74.5827 37.1584 73.2077 36.025 72.0744L36.025 72.0244C34.9084 70.9411 33.5334 70.3994 31.9 70.3994C30.2834 70.3994 28.9167 70.9411 27.8 72.0244M33.55 77.8494C33.1 78.2661 32.55 78.4744 31.9 78.4744C31.2667 78.4744 30.7167 78.2661 30.25 77.8494L30.225 77.7994C29.8084 77.3661 29.6 76.8327 29.6 76.1994C29.6 75.5494 29.8084 74.9994 30.225 74.5494L30.25 74.5494C30.7167 74.1161 31.2667 73.8994 31.9 73.8994C32.55 73.8994 33.1 74.1161 33.55 74.5494L33.575 74.5494C33.9917 74.9994 34.2 75.5494 34.2 76.1994C34.2 76.8327 33.9917 77.3661 33.575 77.7994C33.5584 77.7994 33.55 77.8161 33.55 77.8494M32.25 59.4252C32.25 59.0585 32.1167 58.7419 31.85 58.4752C31.5833 58.2085 31.2667 58.0752 30.9 58.0752C30.5333 58.0752 30.225 58.2085 29.975 58.4752C29.7083 58.7419 29.575 59.0585 29.575 59.4252C29.575 59.7919 29.7083 60.1002 29.975 60.3502C30.225 60.6169 30.5333 60.7502 30.9 60.7502C31.2667 60.7502 31.5833 60.6169 31.85 60.3502C32.1167 60.1002 32.25 59.7919 32.25 59.4252M31.925 54.9494L31.925 51.3994L29.6 51.3994L29.6 54.9494L31.925 54.9494M31.75 55.5748C31.4833 55.3081 31.1667 55.1748 30.8 55.1748C30.4333 55.1748 30.1167 55.3081 29.85 55.5748C29.5833 55.8415 29.45 56.1581 29.45 56.5248C29.45 56.8748 29.5833 57.1831 29.85 57.4498C30.1167 57.7165 30.4333 57.8498 30.8 57.8498C31.1667 57.8498 31.4833 57.7165 31.75 57.4498C32.0167 57.1831 32.15 56.8748 32.15 56.5248C32.15 56.1581 32.0167 55.8415 31.75 55.5748M19.925 46.0749C19.825 46.1749 19.775 46.2915 19.775 46.4249L19.775 60.7749L20.725 60.7749L20.725 46.4249C20.725 46.2749 20.6834 46.1582 20.6 46.0749C20.4834 46.0082 20.3584 45.9749 20.225 45.9749C20.0917 45.9582 19.9917 45.9915 19.925 46.0749M84.325 77.2744L84.325 74.2744L79.8 74.2744L79.8 77.2744L84.325 77.2744M84.025 78.8L83.825 77.75L80.55 77.75L80.35 78.8L84.025 78.8M86.5 71.8746C86.4833 71.8746 86.475 71.8913 86.475 71.9246C85.375 73.0579 84.825 74.4246 84.825 76.0246C84.825 77.6413 85.375 79.0163 86.475 80.1496C86.475 80.1663 86.4833 80.1746 86.5 80.1746C87.6333 81.2913 89.0083 81.8496 90.625 81.8496C92.2416 81.8496 93.6083 81.2913 94.725 80.1746C94.7416 80.1746 94.75 80.1663 94.75 80.1496C95.8666 79.0163 96.425 77.6413 96.425 76.0246C96.425 74.4246 95.8666 73.0579 94.75 71.9246C94.75 71.8913 94.7416 71.8746 94.725 71.8746C93.6083 70.7746 92.2416 70.2246 90.625 70.2246C89.0083 70.2246 87.6333 70.7746 86.5 71.8746M92.275 74.3746C92.7083 74.8246 92.925 75.3746 92.925 76.0246C92.925 76.6746 92.7083 77.2163 92.275 77.6496C92.2583 77.6496 92.25 77.6663 92.25 77.6996C91.7999 78.1163 91.2583 78.3246 90.625 78.3246C89.9916 78.3246 89.4416 78.1163 88.975 77.6996L88.95 77.6496C88.5333 77.2163 88.325 76.6746 88.325 76.0246C88.325 75.3746 88.5333 74.8246 88.95 74.3746L88.975 74.3746C89.4416 73.9413 89.9916 73.7246 90.625 73.7246C91.2583 73.7246 91.7999 73.9413 92.25 74.3746L92.275 74.3746M101.75 72.8246C102.267 72.3413 102.533 71.7329 102.55 70.9996L102.55 68.6246L30 68.6246L30 61.8246L29.45 61.2746L17.15 61.2246L14.3 62.3246L15.3 66.7746L13.475 66.7746L13.475 71.1746L14.725 71.1746L16.05 73.7746L25.45 73.7996L28.325 69.6746L35.35 69.6746L38.025 73.7996L42.7 73.7996L45.55 69.6746L52.625 69.6746L55.375 73.7996L67.125 73.8246L69.975 69.7746L77.05 69.7746L79.7 73.8246L84.4 73.8246L87.25 69.7746L94.3 69.7746L96.9 73.7746L96.9 77.2496L98.5 77.2496L98.5 73.2496C98.9 73.4829 99.3584 73.5996 99.875 73.5996C100.608 73.5996 101.233 73.3413 101.75 72.8246M24.3 66.4002L24.3 63.3252L27.8 63.3252L27.8 66.4002L24.3 66.4002M22.65 63.3496L22.65 66.3996L19.15 66.3996L19.15 63.3496L22.65 63.3496M17.925 65.8502L16.275 66.6252L15.5 63.3252L17.9 63.3252L17.925 65.8502L17.925 65.8502Z" id="Group" fill="#FFFFFF" fill-rule="evenodd" stroke="none" />
  </g>
</svg>