<?xml version="1.0" encoding="utf-8"?>
<svg width="128px" height="128px" viewBox="0 0 128 128" version="1.1" xmlns:xlink="http://www.w3.org/1999/xlink" xmlns="http://www.w3.org/2000/svg">
  <defs>
    <path d="M2570 -10996L2570 -10996L2570 -10868L2442 -10868L2442 -10996L2570 -10996Z" id="path_1" />
    <clipPath id="clip_1">
      <use xlink:href="#path_1" clip-rule="evenodd" fill-rule="evenodd" />
    </clipPath>
  </defs>
  <g id="КШМ" clip-path="url(#clip_1)">
    <path d="M2570 -10996L2570 -10996L2570 -10868L2442 -10868L2442 -10996L2570 -10996Z" id="КШМ" fill="none" stroke="none" />
    <path d="M49.7 46.7998L45.625 46.7998L45.625 51.5498L49.7 51.5498L49.7 46.7998M111.85 68.15L111.85 47.25L50.4 47.25L50.4 68.15L111.85 68.15M87.35 47.9746L95.35 47.9746L95.35 53.3496L87.35 53.3496L87.35 47.9746M82.6 47.9248L82.6 53.2998L74.6 53.2998L74.6 47.9248L82.6 47.9248M61.7999 47.9746L69.7999 47.9746L69.7999 53.3496L61.7999 53.3496L61.7999 47.9746M112.525 51.4746L112.525 67.8996L117.275 67.8996L117.275 51.4746L112.525 51.4746M103 73.2252L109.4 73.2252L109.4 68.9002L87.7 68.9002C78.9 68.8835 70.0916 68.8752 61.275 68.8752C60.6416 68.8752 60.0166 68.8752 59.4 68.8752L49.725 68.8252L49.725 53.1752L48.65 52.1002L43.575 52.1002L43.575 50.6752L44.35 50.6752L44.35 49.8252L37.75 49.8252L37.75 50.6752L38.675 50.6752L38.675 52.1002L36.225 52.1002L35.375 53.0252L32.8 59.6252L11.65 64.6002L10.725 65.5502L10.725 76.4002L17.225 78.3502L17.4 77.9752L17.4 75.6252L23.175 69.3752L30.725 69.3502L36.625 75.7502L36.625 78.5752L64.625 78.4752L64.625 76.2752L70.125 70.2502L97.4 70.2502L102.9 76.2502L102.9 78.5752L105.175 78.5752L105.175 75.5752L103 73.2252M36.0249 54.0244L38.0749 54.0244L35.9749 60.1994L34.2249 60.1994L33.7999 59.7244L36.0249 54.0244M39.5499 52.0998L39.5499 50.6748L42.6499 50.6748L42.6499 52.0998L39.5499 52.0998M37.575 60.3244L39.75 54.0244L47.025 54.0244L47.025 60.3244L37.575 60.3244M111.7 46.5248L108.85 41.9498L107.625 41.9498L106.2 40.5498L55.0499 40.5498L53.6499 41.9498L53.3999 41.9498L50.5499 46.5248L111.7 46.5248M82.575 42.9248L82.575 45.3498L74.575 45.3498L74.575 42.9248L82.575 42.9248M93.85 41.9502L93.85 41.0752L105.875 41.0752L106.75 41.9502L93.85 41.9502M93.1 41.0752L93.1 41.9502L80.35 41.9502L80.35 41.0752L93.1 41.0752M87.325 45.3752L87.325 42.9502L95.325 42.9502L95.325 45.3752L87.325 45.3752M54.5 41.9502L55.375 41.0752L66.4 41.0752L66.4 41.9502L54.5 41.9502M61.775 42.9502L69.775 42.9502L69.775 45.3752L61.775 45.3752L61.775 42.9502M67.1 41.9502L67.1 41.0752L79.7 41.0752L79.7 41.9502L67.1 41.9502L67.1 41.9502Z" id="Group" fill="#FFFFFF" fill-rule="evenodd" stroke="none" />
    <path d="M80.675 73.4C80.675 73.3667 80.6667 73.35 80.65 73.35C79.0667 71.7833 77.125 71 74.825 71C72.5417 71 70.6083 71.7833 69.025 73.35C68.9917 73.35 68.975 73.3667 68.975 73.4C67.4083 75 66.625 76.9333 66.625 79.2C66.625 81.5 67.4083 83.45 68.975 85.05C68.975 85.0667 68.9917 85.075 69.025 85.075C70.6083 86.6583 72.5417 87.45 74.825 87.45C77.125 87.45 79.0667 86.6583 80.65 85.075C80.6667 85.075 80.675 85.0667 80.675 85.05C82.2583 83.45 83.05 81.5 83.05 79.2C83.05 76.9333 82.2583 75 80.675 73.4M77.15 76.8746C77.15 76.8913 77.1583 76.8996 77.175 76.8996C77.775 77.5329 78.075 78.2996 78.075 79.1996C78.075 80.1163 77.775 80.8829 77.175 81.4996C77.1583 81.4996 77.15 81.5246 77.15 81.5746C76.5166 82.1746 75.7416 82.4746 74.825 82.4746C73.9249 82.4746 73.15 82.1746 72.5 81.5746L72.475 81.4996C71.875 80.8829 71.575 80.1163 71.575 79.1996C71.575 78.2996 71.875 77.5329 72.475 76.8996C72.4916 76.8996 72.5 76.8913 72.5 76.8746C73.15 76.2746 73.9249 75.9746 74.825 75.9746C75.7416 75.9746 76.5166 76.2746 77.15 76.8746M98.725 73.4C98.725 73.3667 98.7167 73.35 98.7 73.35C97.1167 71.7833 95.175 71 92.875 71C90.5917 71 88.6584 71.7833 87.075 73.35C87.0417 73.35 87.025 73.3667 87.025 73.4C85.4584 75 84.675 76.9333 84.675 79.2C84.675 81.5 85.4584 83.45 87.025 85.05C87.025 85.0667 87.0417 85.075 87.075 85.075C88.6584 86.6583 90.5917 87.45 92.875 87.45C95.175 87.45 97.1167 86.6583 98.7 85.075C98.7167 85.075 98.725 85.0667 98.725 85.05C100.308 83.45 101.1 81.5 101.1 79.2C101.1 76.9333 100.308 75 98.725 73.4M95.225 76.8996C95.825 77.5329 96.125 78.2996 96.125 79.1996C96.125 80.1163 95.825 80.8829 95.225 81.4996C95.2083 81.4996 95.2 81.5246 95.2 81.5746C94.5667 82.1746 93.7917 82.4746 92.875 82.4746C91.975 82.4746 91.2 82.1746 90.55 81.5746L90.525 81.4996C89.925 80.8829 89.625 80.1163 89.625 79.1996C89.625 78.2996 89.925 77.5329 90.525 76.8996C90.5417 76.8996 90.55 76.8913 90.55 76.8746C91.2 76.2746 91.975 75.9746 92.875 75.9746C93.7917 75.9746 94.5667 76.2746 95.2 76.8746C95.2 76.8913 95.2083 76.8996 95.225 76.8996L95.225 76.8996Z" id="Group" fill="#FFFFFF" fill-rule="evenodd" stroke="none" />
    <path d="M32.7501 73.4C32.7501 73.3667 32.7417 73.35 32.7251 73.35C31.1417 71.7833 29.2001 71 26.9001 71C24.6167 71 22.6834 71.7833 21.1001 73.35C21.0667 73.35 21.0501 73.3667 21.0501 73.4C19.4834 75 18.7001 76.9333 18.7001 79.2C18.7001 81.5 19.4834 83.45 21.0501 85.05C21.0501 85.0667 21.0667 85.075 21.1001 85.075C22.6834 86.6583 24.6167 87.45 26.9001 87.45C29.2001 87.45 31.1417 86.6583 32.7251 85.075C32.7417 85.075 32.7501 85.0667 32.7501 85.05C34.3334 83.45 35.1251 81.5 35.1251 79.2C35.1251 76.9333 34.3334 75 32.7501 73.4M26.9 75.9746C27.8167 75.9746 28.5917 76.2746 29.225 76.8746C29.225 76.8913 29.2334 76.8996 29.25 76.8996C29.85 77.5329 30.15 78.2996 30.15 79.1996C30.15 80.1163 29.85 80.8829 29.25 81.4996C29.2334 81.4996 29.225 81.5246 29.225 81.5746C28.5917 82.1746 27.8167 82.4746 26.9 82.4746C26 82.4746 25.225 82.1746 24.575 81.5746L24.55 81.4996C23.95 80.8829 23.65 80.1163 23.65 79.1996C23.65 78.2996 23.95 77.5329 24.55 76.8996C24.5667 76.8996 24.575 76.8913 24.575 76.8746C25.225 76.2746 26 75.9746 26.9 75.9746L26.9 75.9746Z" id="Group" fill="#FFFFFF" fill-rule="evenodd" stroke="none" />
  </g>
</svg>