<?xml version="1.0" encoding="utf-8"?>
<svg width="128px" height="128px" viewBox="0 0 128 128" version="1.1" xmlns:xlink="http://www.w3.org/1999/xlink" xmlns="http://www.w3.org/2000/svg">
  <defs>
    <path d="M2570 -10996L2570 -10996L2570 -10868L2442 -10868L2442 -10996L2570 -10996Z" id="path_1" />
    <clipPath id="clip_1">
      <use xlink:href="#path_1" clip-rule="evenodd" fill-rule="evenodd" />
    </clipPath>
  </defs>
  <g id="Миномет" clip-path="url(#clip_1)">
    <path d="M2570 -10996L2570 -10996L2570 -10868L2442 -10868L2442 -10996L2570 -10996Z" id="Миномет" fill="none" stroke="none" />
    <path d="M37.375 58.7502C36.875 58.2502 36.6167 57.6502 36.6 56.9502C36.6167 56.8335 36.625 56.7085 36.625 56.5752L35.65 56.7252L21.475 96.3502L18.95 96.3502L17.8 98.7252L26.25 98.7252L25.775 96.3502L23.225 96.3502L39 59.4502C38.3834 59.4335 37.8417 59.2002 37.375 58.7502M56.55 54.826L53.65 52.001L46.675 59.101L41.075 53.626L40.125 54.626C40.4084 54.7426 40.675 54.9176 40.925 55.151C41.425 55.6343 41.6667 56.2093 41.65 56.876C41.6667 57.5093 41.4834 58.0593 41.1 58.526C41.0834 58.5426 41.075 58.5593 41.075 58.576L53.15 70.426L55.625 67.876L49.575 61.926L56.55 54.826M39.6 55.5004L39.6 55.4754C39.45 55.4421 39.3 55.4171 39.15 55.4004L39.1 55.4004C38.6833 55.4171 38.3333 55.5754 38.05 55.8754C37.8333 56.0921 37.7 56.3337 37.65 56.6004C37.6167 56.7171 37.6 56.8337 37.6 56.9504C37.6 57.3671 37.7583 57.7254 38.075 58.0254C38.375 58.3087 38.7333 58.4587 39.15 58.4754C39.2 58.4587 39.2417 58.4587 39.275 58.4754C39.6417 58.4254 39.9583 58.2671 40.225 58.0004C40.2583 57.9671 40.2833 57.9337 40.3 57.9004C40.55 57.6171 40.675 57.2837 40.675 56.9004C40.675 56.5004 40.525 56.1504 40.225 55.8504C40.0417 55.6671 39.8333 55.5504 39.6 55.5004M39.875 39.8252L34.25 45.5752L46.625 57.7002L52.25 51.9502L39.875 39.8252M32.55 45.6506L39.575 38.5006L37.2 37.2256L31.575 42.9756L32.55 45.6506M32.1 32.2256L30.6 30.2256L24.25 36.7256L26.475 37.9756L32.1 32.2256M36.625 36.6758L32.8 32.9258L27.175 38.6758L31 42.4258L36.625 36.6758M48.25 46.9502L50.05 48.7002L52.875 47.7002L49.275 44.2002L48.25 46.9502M110.2 98.6252L107.9 95.0002L75.375 94.9502L73.3 98.6502L110.2 98.6252M89.7 87.8506L83.625 94.0506L96.025 94.0756L89.7 87.8506M82.75 93.101L88.375 87.351L56.625 56.251L51 62.001L82.75 93.101L82.75 93.101Z" id="Group" fill="#FFFFFF" fill-rule="evenodd" stroke="none" />
  </g>
</svg>