<?xml version="1.0" encoding="utf-8"?>
<svg width="128px" height="128px" viewBox="0 0 128 128" version="1.1" xmlns:xlink="http://www.w3.org/1999/xlink" xmlns="http://www.w3.org/2000/svg">
  <defs>
    <path d="M2570 -10996L2570 -10996L2570 -10868L2442 -10868L2442 -10996L2570 -10996Z" id="path_1" />
    <clipPath id="clip_1">
      <use xlink:href="#path_1" clip-rule="evenodd" fill-rule="evenodd" />
    </clipPath>
  </defs>
  <g id="Орудие" clip-path="url(#clip_1)">
    <path d="M2570 -10996L2570 -10996L2570 -10868L2442 -10868L2442 -10996L2570 -10996Z" id="Орудие" fill="none" stroke="none" />
    <path d="M69.4 64.2748C68.1 63.6081 66.7334 63.2165 65.3 63.0998C63.55 62.9331 61.9 63.1915 60.35 63.8748C59.75 64.1415 59.1667 64.4665 58.6 64.8498C57.2 65.7331 56.0917 66.8581 55.275 68.2248C54.4417 69.6248 53.9167 71.1248 53.7 72.7248C53.5 74.3415 53.6334 75.9248 54.1 77.4748C54.6167 79.0248 55.4584 80.3665 56.625 81.4998C57.825 82.7165 59.1917 83.6165 60.725 84.1998C62.0417 84.7331 63.4 84.9665 64.8 84.8998L64.85 84.9248C66.3334 84.8748 67.75 84.5498 69.1 83.9498C70.35 83.3831 71.4667 82.5665 72.45 81.4998C73.4 80.4165 74.15 79.2331 74.7 77.9498C74.8334 77.5498 74.9584 77.1665 75.075 76.7998C75.4417 75.6331 75.5834 74.4581 75.5 73.2748L75.1 71.0248C74.6834 69.4748 73.925 68.0748 72.825 66.8248C71.8584 65.7748 70.7167 64.9248 69.4 64.2748M68.925 72.4994C68.925 72.5161 68.9501 72.5328 69 72.5494C69.3167 73.7161 69.2167 74.8494 68.7 75.9494C68.1167 77.1328 67.25 77.9244 66.1 78.3244L66.025 78.3744C64.8084 78.7244 63.65 78.6244 62.55 78.0744C61.3834 77.4911 60.6084 76.6244 60.225 75.4744C60.2417 75.4244 60.2417 75.3994 60.225 75.3994C59.8584 74.2328 59.9584 73.0828 60.525 71.9494C61.0917 70.8161 61.95 70.0328 63.1 69.5994C63.1167 69.5994 63.125 69.5911 63.125 69.5744C64.2917 69.2411 65.4417 69.3494 66.575 69.8994C67.7084 70.4494 68.4917 71.3161 68.925 72.4994M61.475 62.1994C61.475 62.1827 61.4584 62.1661 61.425 62.1494L60.45 60.8244C60.4334 60.8244 60.4084 60.8077 60.375 60.7744L44.775 53.0244L45 55.7494L59.45 62.9744C59.6 62.9244 59.7417 62.8577 59.875 62.7744L59.9 62.7744C60.4 62.5244 60.925 62.3327 61.475 62.1994M69.925 63.1248L69.95 63.1748C71.3667 63.8748 72.6167 64.8165 73.7 65.9998C74.7833 67.2331 75.5833 68.6081 76.1 70.1248L79.975 62.3248L69.4 57.0498L62.7 61.9248C63.5667 61.8415 64.4583 61.8248 65.375 61.8748C66.9917 62.0248 68.5083 62.4415 69.925 63.1248M27.375 39.3242L25.625 42.8992L59.525 59.7492C59.5917 59.6492 59.6417 59.5826 59.675 59.5492L62.55 56.7992L27.375 39.3242M16.425 33.1494L14.025 37.9994L18.85 40.3494L21.775 40.9244L24.825 42.3994L26.525 39.0994L23.4 37.4994L21.575 35.7244L16.425 33.1494M18.05 38.4242L16.175 37.4742L17.25 35.3242L19.125 36.2492L18.05 38.4242M22.6001 38.399L21.8501 39.874L19.8251 39.274L20.9001 37.124L22.6001 38.399M78.3 49.2994L77.05 47.6494L60.725 59.5994L61.95 61.2744L78.3 49.2994M47.9 46.3496L45.625 47.7496L63.375 56.5496L65.4 55.0746L47.9 46.3496M114 84.4996L112.85 81.1246L76.7 73.3496C76.7667 74.6329 76.6084 75.8996 76.225 77.1496C76.125 77.4996 76.0167 77.8663 75.9 78.2496L114 84.4996L114 84.4996Z" id="Group" fill="#FFFFFF" fill-rule="evenodd" stroke="none" />
  </g>
</svg>