<?xml version="1.0" encoding="utf-8"?>
<svg width="128px" height="128px" viewBox="0 0 128 128" version="1.1" xmlns:xlink="http://www.w3.org/1999/xlink" xmlns="http://www.w3.org/2000/svg">
  <defs>
    <path d="M2570 -10996L2570 -10996L2570 -10868L2442 -10868L2442 -10996L2570 -10996Z" id="path_1" />
    <clipPath id="clip_1">
      <use xlink:href="#path_1" clip-rule="evenodd" fill-rule="evenodd" />
    </clipPath>
  </defs>
  <g id="Пусковая уст" clip-path="url(#clip_1)">
    <path d="M2570 -10996L2570 -10996L2570 -10868L2442 -10868L2442 -10996L2570 -10996Z" id="Пусковая-уст" fill="none" stroke="none" />
    <path d="M101.225 74.2002C101.225 74.1669 101.217 74.1502 101.2 74.1502C99.8833 72.8502 98.2583 72.2002 96.325 72.2002C94.4083 72.2002 92.7833 72.8502 91.45 74.1502C91.4333 74.1502 91.425 74.1669 91.425 74.2002C90.1083 75.5502 89.45 77.1752 89.45 79.0752C89.45 80.9919 90.1083 82.6252 91.425 83.9752C91.425 83.9919 91.4333 84.0002 91.45 84.0002C92.7833 85.3169 94.4083 85.9752 96.325 85.9752C98.2583 85.9752 99.8833 85.3169 101.2 84.0002C101.217 84.0002 101.225 83.9919 101.225 83.9752C102.558 82.6252 103.225 80.9919 103.225 79.0752C103.225 77.1752 102.558 75.5502 101.225 74.2002M96.325 76.3496C97.0917 76.3496 97.7417 76.6079 98.275 77.1246L98.3 77.1246C98.8 77.6579 99.05 78.3079 99.05 79.0746C99.05 79.8413 98.8 80.4829 98.3 80.9996C98.2833 80.9996 98.275 81.0163 98.275 81.0496C97.7417 81.5496 97.0917 81.7996 96.325 81.7996C95.575 81.7996 94.925 81.5496 94.375 81.0496L94.35 80.9996C93.85 80.4829 93.6 79.8413 93.6 79.0746C93.6 78.3079 93.85 77.6579 94.35 77.1246L94.375 77.1246C94.925 76.6079 95.575 76.3496 96.325 76.3496M70.675 74.1748C70.675 74.1415 70.6667 74.1248 70.65 74.1248C69.3333 72.8248 67.7083 72.1748 65.775 72.1748C63.8583 72.1748 62.2333 72.8248 60.9 74.1248C60.8833 74.1248 60.875 74.1415 60.875 74.1748C59.5583 75.5248 58.9 77.1498 58.9 79.0498C58.9 80.9665 59.5583 82.5998 60.875 83.9498C60.875 83.9665 60.8833 83.9748 60.9 83.9748C62.2333 85.2915 63.8583 85.9498 65.775 85.9498C67.7083 85.9498 69.3333 85.2915 70.65 83.9748C70.6667 83.9748 70.675 83.9665 70.675 83.9498C72.0083 82.5998 72.675 80.9665 72.675 79.0498C72.675 77.1498 72.0083 75.5248 70.675 74.1748M67.725 77.1002L67.75 77.1002C68.25 77.6335 68.5 78.2835 68.5 79.0502C68.5 79.8169 68.25 80.4585 67.75 80.9752C67.7333 80.9752 67.725 80.9919 67.725 81.0252C67.1917 81.5252 66.5417 81.7752 65.775 81.7752C65.025 81.7752 64.375 81.5252 63.825 81.0252L63.8 80.9752C63.3 80.4585 63.05 79.8169 63.05 79.0502C63.05 78.2835 63.3 77.6335 63.8 77.1002L63.825 77.1002C64.375 76.5835 65.025 76.3252 65.775 76.3252C66.5417 76.3252 67.1917 76.5835 67.725 77.1002M29.575 74.1248C29.5583 74.1248 29.55 74.1415 29.55 74.1748C28.2333 75.5248 27.575 77.1498 27.575 79.0498C27.575 80.9665 28.2333 82.5998 29.55 83.9498C29.55 83.9665 29.5583 83.9748 29.575 83.9748C30.9083 85.2915 32.5333 85.9498 34.45 85.9498C36.3833 85.9498 38.0083 85.2915 39.325 83.9748C39.3417 83.9748 39.35 83.9665 39.35 83.9498C40.6833 82.5998 41.35 80.9665 41.35 79.0498C41.35 77.1498 40.6833 75.5248 39.35 74.1748C39.35 74.1415 39.3417 74.1248 39.325 74.1248C38.0083 72.8248 36.3833 72.1748 34.45 72.1748C32.5333 72.1748 30.9083 72.8248 29.575 74.1248M36.4 77.1002L36.425 77.1002C36.925 77.6335 37.175 78.2835 37.175 79.0502C37.175 79.8169 36.925 80.4585 36.425 80.9752C36.4083 80.9752 36.4 80.9919 36.4 81.0252C35.8667 81.5252 35.2167 81.7752 34.45 81.7752C33.7 81.7752 33.05 81.5252 32.5 81.0252L32.475 80.9752C31.975 80.4585 31.725 79.8169 31.725 79.0502C31.725 78.2835 31.975 77.6335 32.475 77.1002L32.5 77.1002C33.05 76.5835 33.7 76.3252 34.45 76.3252C35.2167 76.3252 35.8667 76.5835 36.4 77.1002M58.1 76.5498L42.125 76.5498L42.125 79.5248L58.1 79.5248L58.1 76.5498M42 49.85L50.125 54.2L51.1 49.375L42 49.85M65.775 51.2248L65.7 51.1998L51.75 49.4248L50.725 54.3998L58.65 56.6248L64.675 56.6248L65.775 51.2248M88.625 79.5248L88.625 76.5498L73.6 76.5498L73.6 79.5248L88.625 79.5248M91.15 54.7246L88.675 55.8746L88.65 55.8746L87.175 56.6246L96.375 56.6246L96.525 55.7996L91.15 54.7246M86.075 56.6246L87.75 55.6996L66.45 51.3496L65.375 56.6246L86.075 56.6246M110.925 59.4496L110.925 57.5996L39.375 57.5996L39.375 59.4496L110.925 59.4496M116.825 71.9502L111.175 60.2002L20.625 60.2252L16.175 65.7252L11.775 66.9252L13.4 72.2502L26.575 79.5252L26.625 79.5252L26.625 76.1502L29.925 71.3252L38.925 71.3502L42.125 76.0752L42.125 76.1502L58.1 76.1502L61.4 71.3252L70.4 71.3502L73.6 76.0502L88.725 76.0502L91.925 71.3752L100.8 71.4002L105.925 79.5252L107.625 79.5002L116.825 71.9502M102.7 69.2246L105.575 69.2246L105.95 70.8746L102.1 70.8746L102.7 69.2246M20.5 61.875L27.125 61.9L26.8 63.575L17.75 65.525L20.5 61.875M36.7 65.7246L36.975 67.3746L34.175 67.3746L34.625 65.7246L36.7 65.7246L36.7 65.7246Z" id="Group" fill="#FFFFFF" fill-rule="evenodd" stroke="none" />
  </g>
</svg>