<?xml version="1.0" encoding="utf-8"?>
<svg width="128px" height="128px" viewBox="0 0 128 128" version="1.1" xmlns:xlink="http://www.w3.org/1999/xlink" xmlns="http://www.w3.org/2000/svg">
  <defs>
    <path d="M2570 -10996L2570 -10996L2570 -10868L2442 -10868L2442 -10996L2570 -10996Z" id="path_1" />
    <clipPath id="clip_1">
      <use xlink:href="#path_1" clip-rule="evenodd" fill-rule="evenodd" />
    </clipPath>
  </defs>
  <g id="РЛС" clip-path="url(#clip_1)">
    <path d="M2570 -10996L2570 -10996L2570 -10868L2442 -10868L2442 -10996L2570 -10996Z" id="РЛС" fill="none" stroke="none" />
    <path d="M82.65 14.4752L82.4 12.1002L81.625 8.6752L81.575 8.3252L78.775 16.4002C77.725 19.5502 76.5667 22.6419 75.3 25.6752L52.85 29.9752C52.8403 29.9785 52.832 29.9785 52.825 29.9752L53.5 28.7752L47.625 27.6502L51.625 32.1002L52.35 30.8252L52.35 30.8502L60.425 52.3752C58.1917 55.4585 55.825 58.4752 53.325 61.4252L48.675 66.6252C48.7583 66.6252 48.85 66.6252 48.95 66.6252C49.1 66.6085 49.25 66.5835 49.4 66.5502C49.7 66.5002 50 66.4335 50.3 66.3502C52.8333 65.7335 55.2167 64.8002 57.45 63.5502C58.1667 63.1669 58.8583 62.7419 59.525 62.2752C59.625 62.2085 59.725 62.1502 59.825 62.1002C64.1583 59.0835 67.8833 55.7252 71 52.0252L70.65 53.1002C70.6333 53.1169 70.625 53.1419 70.625 53.1752C70.5583 53.2585 70.525 53.3585 70.525 53.4752C70.5083 53.5252 70.5 53.5752 70.5 53.6252L67.75 62.3502L67.725 62.4752L63.8 75.1002L58.425 75.1002L58.425 89.4502L100.875 89.4502L100.875 96.0752L103.725 96.0752L103.725 89.4502L106.975 89.4502L106.975 73.9002L78.675 73.9002L78.675 75.1002L76 75.1002L76 63.2252C76 63.1252 75.9917 63.0252 75.975 62.9252C75.9917 62.8252 76 62.7335 76 62.6502L76 50.6502C76 50.6169 76 50.5919 76 50.5752C76.0167 50.4919 76.0167 50.4252 76 50.3752L76 47.5502L77.3 47.7752L80.275 42.5252L78.275 40.3502C81.6083 32.7669 83.0667 24.1419 82.65 14.4752M78.325 26.3L79.2 26.125C78.5333 28.625 77.75 31.05 76.85 33.4L75.725 33.225C76.6916 30.9583 77.5583 28.65 78.325 26.3M77.5 25.2754L76.65 25.4254C77.7 22.8754 78.675 20.2837 79.575 17.6504C78.975 20.2504 78.2834 22.7921 77.5 25.2754M76.125 26.7248L77.075 26.5498C76.325 28.7665 75.4833 30.9415 74.55 33.0748L73.35 32.8748C74.3166 30.8581 75.2416 28.8081 76.125 26.7248M79.5 24.8998L78.75 25.0498C79.7167 21.9165 80.5333 18.7081 81.2 15.4248C80.8 18.6915 80.2333 21.8498 79.5 24.8998M72.85 33.9502L74.075 34.1252C73.4917 35.4585 72.8667 36.7835 72.2 38.1002L70.65 38.2002C71.4 36.8002 72.1334 35.3835 72.85 33.9502M74.75 27C73.9333 28.9167 73.0667 30.825 72.15 32.725L56.525 30.5L74.75 27M75.275 34.2998L76.45 34.4498C75.9833 35.6331 75.475 36.7998 74.925 37.9498L73.5 38.0248C74.1 36.7915 74.6917 35.5498 75.275 34.2998M69.9249 39.5248C69.9583 39.4748 69.9916 39.4165 70.0249 39.3498L71.5499 39.2998C71.3833 39.5831 71.2249 39.8748 71.0749 40.1748L69.9249 39.5248M69.2 40.7998C69.25 40.7165 69.3 40.6331 69.35 40.5498L70.525 41.1998C70.3083 41.5665 70.0916 41.9331 69.875 42.2998L69.2 40.7998M66.9749 46.875L66.1749 45.9C66.9749 44.6 67.7583 43.3 68.5249 42L69.1749 43.45C68.4749 44.6167 67.7416 45.7583 66.9749 46.875M70.375 46.1506C69.7917 47.0339 69.1833 47.9089 68.55 48.7756L67.75 47.7756C68.4167 46.7589 69.0833 45.7423 69.75 44.7256L70.375 46.1506M65.525 46.9248L66.3 47.8748C64.9667 49.7581 63.5583 51.6081 62.075 53.4248L61.75 52.5248C63.05 50.6915 64.3083 48.8248 65.525 46.9248M73.2 41.3754L72.075 40.7254C72.3416 40.2254 72.6083 39.7254 72.875 39.2254L74.35 39.1504C73.9833 39.9004 73.6 40.6421 73.2 41.3754M71.525 41.75L72.65 42.375C72.15 43.2583 71.6333 44.1333 71.1 45L70.45 43.55C70.7999 42.95 71.1583 42.35 71.525 41.75M73.9 48.1998C74.05 47.9831 74.2 47.7665 74.35 47.5498L74.35 50.4998L72.85 51.5748L73.9 48.1998M54.65 33.6748L64.75 45.9998C63.6334 47.7665 62.4667 49.5081 61.25 51.2248L54.65 33.6748M72.15 53.775C72.1667 53.7583 72.175 53.7333 72.175 53.7L72.225 53.55L72.225 53.525L74.35 52L74.375 59.125L72.15 53.8L72.15 53.775M67.85 49.7504C66.3167 51.7671 64.6584 53.7171 62.875 55.6004L62.525 54.6504C64.125 52.7337 65.6334 50.7754 67.05 48.7754L67.85 49.7504M61.65 55.6748L61.9749 56.5498C59.4249 59.1498 56.625 61.5998 53.575 63.8998C56.4749 61.2665 59.1666 58.5248 61.65 55.6748M60.9 53.6748L61.2 54.4498C59.45 56.4998 57.5917 58.4915 55.625 60.4248C57.475 58.2248 59.2333 55.9748 60.9 53.6748M68.75 64.7256L70.3 68.2256L67.725 71.3756L67.075 71.3756L67.075 72.1506L66 73.4756L68.75 64.7256M74.375 63.2256L74.375 63.2506L71.2 67.1506L69.4 63.2256L74.375 63.2256M74.375 74.1498L73.525 72.3248L73.525 71.3748L73.1 71.3748L71.75 68.3748L74.375 65.1748L74.375 74.1498M70.8749 69.4502L71.7499 71.3752L69.2999 71.3752L70.8749 69.4502M74.25 62.0006L69.575 62.0006L71.575 55.6006L74.25 62.0006M67.075 75.1002L66.25 75.1002L67.075 74.0752L67.075 75.1002M62.6249 33.1004L61.6249 34.8754L55.6749 31.5254L71.6249 33.7754C70.8749 35.2754 70.0999 36.7671 69.2999 38.2504L67.7999 38.3254L66.0999 37.3754L62.6249 33.1004M67.8499 40.5504C67.8666 40.6171 67.8916 40.6754 67.9249 40.7254C67.1083 42.1421 66.2666 43.5504 65.3999 44.9504L55.2999 32.6504L61.0499 35.8754L60.0749 37.6254L65.4249 38.3004L67.2749 39.3504L67.8499 40.5504M28.8999 94.3756C28.8666 94.3756 28.8499 94.3923 28.8499 94.4256C27.5666 95.7256 26.9249 97.3006 26.9249 99.1506C26.9249 101.034 27.5666 102.626 28.8499 103.926C28.8499 103.942 28.8666 103.951 28.8999 103.951C30.1833 105.251 31.7583 105.901 33.6249 105.901C35.5083 105.901 37.0916 105.251 38.3749 103.951C38.3916 103.951 38.3999 103.942 38.3999 103.926C39.6999 102.626 40.3499 101.034 40.3499 99.1506C40.3499 97.3006 39.6999 95.7256 38.3999 94.4256C38.3999 94.3923 38.3916 94.3756 38.3749 94.3756C37.0916 93.1089 35.5083 92.4756 33.6249 92.4756C31.7583 92.4756 30.1833 93.1089 28.8999 94.3756M31.725 97.2504C32.2583 96.7671 32.8916 96.5254 33.625 96.5254C34.375 96.5254 35.0083 96.7671 35.525 97.2504C35.525 97.2671 35.5333 97.2754 35.55 97.2754C36.0333 97.7921 36.275 98.4171 36.275 99.1504C36.275 99.9004 36.0333 100.525 35.55 101.025C35.5333 101.025 35.525 101.05 35.525 101.1C35.0083 101.584 34.375 101.825 33.625 101.825C32.8916 101.825 32.2583 101.584 31.725 101.1L31.7 101.025C31.2166 100.525 30.975 99.9004 30.975 99.1504C30.975 98.4171 31.2166 97.7921 31.7 97.2754C31.7166 97.2754 31.725 97.2671 31.725 97.2504M68.025 94.3756C67.9916 94.3756 67.975 94.3923 67.975 94.4256C66.7083 95.7256 66.075 97.3006 66.075 99.1506C66.075 101.034 66.7083 102.626 67.975 103.926C67.975 103.942 67.9916 103.951 68.025 103.951C69.3083 105.251 70.8833 105.901 72.75 105.901C74.6333 105.901 76.225 105.251 77.525 103.951L77.525 103.926C78.825 102.626 79.475 101.034 79.475 99.1506C79.475 97.3006 78.825 95.7256 77.525 94.4256L77.525 94.3756C76.225 93.1089 74.6333 92.4756 72.75 92.4756C70.8833 92.4756 69.3083 93.1089 68.025 94.3756M70.85 97.2754L70.85 97.2504C71.3833 96.7671 72.0166 96.5254 72.75 96.5254C73.5 96.5254 74.1333 96.7671 74.65 97.2504C74.65 97.2671 74.6583 97.2754 74.675 97.2754C75.1583 97.7921 75.4 98.4171 75.4 99.1504C75.4 99.9004 75.1583 100.525 74.675 101.025C74.6583 101.025 74.65 101.05 74.65 101.1C74.1333 101.584 73.5 101.825 72.75 101.825C72.0166 101.825 71.3833 101.584 70.85 101.1L70.85 101.025C70.35 100.525 70.1 99.9004 70.1 99.1504C70.1 98.4171 70.35 97.7921 70.85 97.2754M87.4999 92.4756C85.6333 92.4756 84.0499 93.1089 82.7499 94.3756C82.7333 94.3756 82.7249 94.3923 82.7249 94.4256C81.4416 95.7256 80.7999 97.3006 80.7999 99.1506C80.7999 101.034 81.4416 102.626 82.7249 103.926C82.7249 103.942 82.7333 103.951 82.7499 103.951C84.0499 105.251 85.6333 105.901 87.4999 105.901C89.3666 105.901 90.9499 105.251 92.2499 103.951C92.2666 103.951 92.2749 103.942 92.2749 103.926C93.5583 102.626 94.1999 101.034 94.1999 99.1506C94.1999 97.3006 93.5583 95.7256 92.2749 94.4256C92.2749 94.3923 92.2666 94.3756 92.2499 94.3756C90.9499 93.1089 89.3666 92.4756 87.4999 92.4756M87.5 96.5254C88.25 96.5254 88.8833 96.7671 89.4 97.2504C89.4 97.2671 89.4083 97.2754 89.425 97.2754C89.9083 97.7921 90.15 98.4171 90.15 99.1504C90.15 99.9004 89.9083 100.525 89.425 101.025C89.4083 101.025 89.4 101.05 89.4 101.1C88.8833 101.584 88.25 101.825 87.5 101.825C86.7666 101.825 86.1333 101.584 85.6 101.1L85.575 101.025C85.0916 100.525 84.85 99.9004 84.85 99.1504C84.85 98.4171 85.0916 97.7921 85.575 97.2754C85.5916 97.2754 85.6 97.2671 85.6 97.2504C86.1333 96.7671 86.7666 96.5254 87.5 96.5254M58.55 98.9004L52.275 98.9004L51.9 100.925L58.925 100.925L58.55 98.9004M57.7249 73.0498L54.4249 73.0498L54.4249 79.5248L57.7249 79.5248L57.7249 73.0498M95.475 96.475L95.475 98.375L97.325 98.375L97.325 95.925L95.775 94.225L98.95 94.225L98.95 90.025L58.425 90.025L58.425 90.125L57.8 90.125L57.8 80.15L52.65 80.15L52.65 90.125L52.075 90.125L52.075 77.65L51.2 76.75L41.05 76.75L40.35 77.525L38.25 82.9L20.975 86.975L20.225 87.75L20.225 96.6L25.525 98.2L25.675 97.875L25.675 95.975L30.4 90.875L36.55 90.85L41.375 96.075L41.375 98.375L53.95 98.325L53.95 98.375L56.825 98.375L56.825 98.325L64.225 98.3L64.225 96.5L68.725 91.575L91 91.575L95.475 96.475M39.4249 83.3752L39.075 82.9752L40.875 78.3252L42.5499 78.3252L40.8499 83.3752L39.4249 83.3752M49.875 78.3252L49.875 83.4752L42.15 83.4752L43.925 78.3252L49.875 78.3252M99.1999 96.6006L98.7999 98.6006L105.825 98.6006L105.45 96.6006L99.1999 96.6006L99.1999 96.6006Z" id="Group" fill="#FFFFFF" fill-rule="evenodd" stroke="none" />
  </g>
</svg>