<?xml version="1.0" encoding="utf-8"?>
<svg width="128px" height="128px" viewBox="0 0 128 128" version="1.1" xmlns:xlink="http://www.w3.org/1999/xlink" xmlns="http://www.w3.org/2000/svg">
  <defs>
    <path d="M2570 -10996L2570 -10996L2570 -10868L2442 -10868L2442 -10996L2570 -10996Z" id="path_1" />
    <clipPath id="clip_1">
      <use xlink:href="#path_1" clip-rule="evenodd" fill-rule="evenodd" />
    </clipPath>
  </defs>
  <g id="Танк" clip-path="url(#clip_1)">
    <path d="M2570 -10996L2570 -10996L2570 -10868L2442 -10868L2442 -10996L2570 -10996Z" id="Танк" fill="none" stroke="none" />
    <path d="M6.59985 55.3008L6.59985 59.2758L19.7249 59.2758L19.7249 55.3008L6.59985 55.3008M32.825 55.3008L32.825 59.2758L45 59.2758L45 55.3008L32.825 55.3008M31.8749 60.326L31.8749 54.251L20.7749 54.251L20.7749 60.326L31.8749 60.326M58.9748 45.7256L58.9748 46.4256L49.6248 46.4256L49.6248 48.1256L58.9748 48.1256L58.9748 48.8256L63.0498 48.8256C62.7831 49.2756 62.5914 49.7506 62.4748 50.2506L73.9748 50.2256C73.7414 49.1923 73.2164 48.2589 72.3998 47.4256C71.2998 46.3423 69.9998 45.7839 68.4998 45.7506L68.4998 45.7256L58.9748 45.7256M92.1248 56.7756L92.1248 50.8506L61.8248 50.9256L46.0498 55.2256L46.0498 59.2756L47.2998 60.8506L79.8498 60.8506L80.1498 59.2006C80.1831 59.0339 80.2415 58.9006 80.3248 58.8006C80.4581 58.6673 80.6081 58.6006 80.7748 58.6006L92.1248 56.7756M100.45 59.7002L89.25 59.7002L82.7249 61.1752C81.875 61.3252 81.3499 61.4335 81.1499 61.5002C80.9833 61.5335 80.7833 61.5502 80.55 61.5502L47.775 61.5502C47.7083 61.5502 47.6499 61.5419 47.5999 61.5252L46.95 61.5252L37.45 66.5752L102.175 66.5752L100.45 59.7002M108.975 70.5756L107.5 67.4756L27.8499 67.4756C27.7999 67.4756 27.7666 67.4923 27.7499 67.5256C26.6499 67.5923 25.6999 68.0673 24.8999 68.9506C24.1499 69.7339 23.6916 70.6673 23.5249 71.7506L37.3249 74.9006L99.7749 75.0256L108.975 70.5756M105.475 72.9756L103 74.1756C102.8 74.6589 102.517 75.1006 102.15 75.5006C101.933 75.7339 101.675 75.9339 101.375 76.1006C101.308 76.1173 101.233 76.1506 101.15 76.2006C101.117 76.2339 101.067 76.2673 101 76.3006L100.875 76.4006C100.892 76.3673 100.925 76.3339 100.975 76.3006C101.442 75.8006 101.8 75.2506 102.05 74.6506L98.925 76.1256C98.8083 76.1756 98.7 76.2006 98.5999 76.2006L93.9749 76.2006C94.0083 76.2339 94.05 76.2673 94.0999 76.3006C95.05 77.2339 96.1916 77.7006 97.5249 77.7006C98.2749 77.7006 98.9749 77.5506 99.625 77.2506L93.625 81.2756C93.575 81.3089 93.5166 81.3589 93.45 81.4256C93.3666 81.5089 93.2583 81.6006 93.125 81.7006L93.175 81.6756C92.5416 82.1423 91.8083 82.3839 90.9749 82.4006L87.7749 82.4006C88.7749 82.1673 89.6583 81.6839 90.425 80.9506C91.4749 79.8672 92 78.5756 92 77.0756C92 76.7589 91.9833 76.4673 91.95 76.2006L81.0999 76.1756C81.0333 76.4589 81 76.7589 81 77.0756C81 78.5756 81.5583 79.8672 82.675 80.9506C83.4083 81.6839 84.2833 82.1673 85.3 82.4006L74.4749 82.4006C75.4749 82.1673 76.3499 81.6839 77.0999 80.9506C78.1666 79.8672 78.6999 78.5756 78.6999 77.0756C78.6999 76.7589 78.6749 76.4589 78.625 76.1756L67.825 76.1756C67.7583 76.4423 67.7249 76.7422 67.7249 77.0756C67.7249 78.5756 68.2749 79.8672 69.375 80.9506C70.1083 81.6839 70.9749 82.1673 71.9749 82.4006L61.0999 82.4006C62.0999 82.1673 62.9833 81.6839 63.75 80.9506C64.7999 79.8672 65.325 78.5756 65.325 77.0756C65.325 76.7422 65.3083 76.4423 65.2749 76.1756L54.45 76.1256C54.3833 76.4256 54.3499 76.7422 54.3499 77.0756C54.3499 78.5756 54.8999 79.8672 56 80.9506C56.75 81.6839 57.625 82.1673 58.625 82.4006L47.7999 82.4006C48.8166 82.1673 49.7 81.6839 50.45 80.9506C51.5166 79.8672 52.0499 78.5756 52.0499 77.0756C52.0499 76.7422 52.0333 76.4256 52 76.1256L41.15 76.1006C41.0833 76.4173 41.0499 76.7422 41.0499 77.0756C41.0499 78.5756 41.5999 79.8672 42.7 80.9506C43.45 81.6839 44.3166 82.1673 45.2999 82.4006L38.075 82.4006C37.0916 82.3673 36.2583 82.0089 35.575 81.3256L35.525 81.3006C35.475 81.2006 35.4249 81.1173 35.375 81.0506L31.6749 77.8006C32.5583 78.5006 33.5666 78.8506 34.7 78.8506C36.0499 78.8506 37.2 78.3923 38.15 77.4756C38.5666 77.0589 38.8916 76.6006 39.125 76.1006L38.325 76.1006C38.275 76.1006 38.2249 76.1006 38.1749 76.1006L29.875 74.1756C29.8916 75.4589 30.3583 76.5589 31.275 77.4756L29.4 75.8506C29.3166 75.7506 29.2333 75.6673 29.15 75.6006C28.6333 75.0839 28.2999 74.4839 28.15 73.8006L25.825 73.2506C25.8916 74.7673 26.475 76.0839 27.575 77.2006C27.675 77.2673 27.75 77.3423 27.7999 77.4256C27.8333 77.4423 27.85 77.4589 27.85 77.4756L33.7999 82.7256C33.8333 82.7923 33.9083 82.8506 34.025 82.9006C35.125 84.0173 36.4666 84.6172 38.0499 84.7006L91 84.7006C92.3333 84.6673 93.5166 84.2756 94.55 83.5256L94.575 83.4256C94.6749 83.3423 94.7833 83.2506 94.8999 83.1506L102.225 78.2256C102.308 78.1423 102.392 78.0923 102.475 78.0756C102.492 78.0589 102.517 78.0423 102.55 78.0256C102.983 77.7589 103.375 77.4423 103.725 77.0756C104.858 75.9256 105.442 74.5589 105.475 72.9756M103.4 58.1258C102.583 58.9924 102.175 60.0174 102.175 61.2008C102.175 62.3841 102.583 63.3924 103.4 64.2258C104.266 65.0925 105.283 65.5258 106.45 65.5258C107.65 65.5258 108.666 65.0925 109.5 64.2258C110.333 63.3924 110.75 62.3841 110.75 61.2008C110.75 60.0174 110.333 58.9924 109.5 58.1258C108.666 57.3258 107.65 56.9258 106.45 56.9258C105.283 56.9258 104.266 57.3258 103.4 58.1258M84 28.7755C83.7999 28.8755 83.6666 29.0255 83.6 29.2255L76.825 50.2255L78.375 50.2255L85 29.6755C85.1166 29.4588 85.1083 29.2672 84.975 29.1005C84.8916 28.9172 84.75 28.8005 84.55 28.7505C84.3666 28.6838 84.1833 28.6922 84 28.7755L84 28.7755Z" id="Group" fill="#FFFFFF" fill-rule="evenodd" stroke="none" />
  </g>
</svg>